<svg width="567" height="425" viewBox="0 0 567 425" fill="none" xmlns="http://www.w3.org/2000/svg">
<path d="M79.7699 144.004C86.0778 138.869 94.6182 138.125 102.414 139.541C110.742 141.029 118.326 145.031 126.016 148.396C133.954 151.902 142.034 154.416 150.751 154.841C159.433 155.302 168.116 154.062 176.55 151.937C194.162 147.51 210.322 139.01 227.225 132.6C235.695 129.377 244.448 126.579 253.449 125.304C258.34 124.596 263.265 124.418 268.191 124.95C272.869 125.446 277.44 126.543 282.012 127.677C292.111 130.191 302.176 132.387 312.523 133.627C323.19 134.902 333.963 135.327 344.701 134.973C345.374 134.937 345.374 133.875 344.701 133.91C325.21 134.619 305.719 132.529 286.796 127.818C277.759 125.552 268.794 123.214 259.403 123.675C250.295 124.135 241.294 126.543 232.718 129.483C215.531 135.398 199.372 144.075 181.936 149.352C173.077 152.008 163.899 153.85 154.614 153.885C145.188 153.921 136.328 151.725 127.717 147.971C119.212 144.287 110.884 139.719 101.635 138.302C93.7677 137.098 85.369 138.054 79.0257 143.225C78.4941 143.685 79.2383 144.464 79.7699 144.004Z" fill="#E8E8E8"/>
<path d="M270.636 111.633C295.194 122.223 323.084 120.452 348.209 112.766C361.817 108.587 375.354 102.991 389.848 103.027C404.448 103.062 418.304 108.162 432.586 110.429C445.556 112.483 459.837 112.235 470.964 104.444C471.531 104.054 471 103.133 470.433 103.523C460.156 110.712 447.115 111.35 435.066 109.721C421.423 107.879 408.311 103.133 394.526 102.141C380.741 101.15 367.735 105.294 354.8 109.544C341.901 113.758 328.86 117.052 315.287 117.831C300.262 118.716 285.059 116.698 271.203 110.712C270.565 110.429 270.034 111.35 270.636 111.633Z" fill="#E8E8E8"/>
<path d="M66.2327 199.927C73.9935 194.402 83.1718 191.002 92.6691 190.081C97.4177 189.621 102.202 189.798 106.88 190.612C111.734 191.462 116.412 193.092 121.055 194.721C129.666 197.696 138.206 199.962 147.278 197.873C155.11 196.067 162.197 191.994 169.143 188.133C177.329 183.565 185.834 178.89 195.332 178.04C196.005 177.969 196.005 176.906 195.332 176.977C178.392 178.5 165.67 191.215 149.865 196.067C145.861 197.306 141.679 197.944 137.498 197.696C132.359 197.377 127.362 195.783 122.543 194.119C117.688 192.454 112.833 190.648 107.73 189.692C103.336 188.877 98.8352 188.629 94.4055 188.912C84.1286 189.55 74.0998 193.056 65.7011 199.042C65.1341 199.396 65.6657 200.317 66.2327 199.927Z" fill="#E8E8E8"/>
<path d="M160.177 213.527C173.963 198.971 194.233 193.021 213.83 192.844C225.205 192.737 236.545 194.367 247.637 196.74C258.198 198.971 268.439 201.875 279.354 200.423C290.765 198.9 301.431 194.012 311.637 188.877C312.24 188.558 311.708 187.637 311.106 187.956C301.396 192.844 291.296 197.483 280.488 199.183C274.96 200.033 269.396 199.962 263.868 199.077C258.269 198.192 252.811 196.704 247.247 195.535C226.977 191.285 205.396 189.479 185.48 196.385C175.664 199.785 166.592 205.204 159.433 212.748C158.973 213.279 159.717 214.023 160.177 213.527Z" fill="#E8E8E8"/>
<path d="M324.43 224.117C330.207 226.135 336.125 224.258 341.405 221.744C347.323 218.91 352.887 215.404 358.946 212.89C365.006 210.375 371.527 208.675 378.118 209.49C384.143 210.233 389.706 212.925 394.986 215.794C399.983 218.521 404.909 221.496 410.225 223.585C416.143 225.887 422.521 226.985 428.865 226.844C441.87 226.56 452.927 220.079 464.798 215.687C475.89 211.579 490.668 209.737 499.562 219.371C500.023 219.867 500.767 219.123 500.307 218.627C493.325 211.083 482.198 210.233 472.63 212.252C460.156 214.873 449.383 222.487 436.838 224.931C430.14 226.242 423.124 226.065 416.497 224.471C410.331 222.983 404.803 220.079 399.274 216.998C394.278 214.2 389.21 211.296 383.717 209.631C378.012 207.896 372.058 207.86 366.282 209.277C359.23 211.012 352.745 214.448 346.402 217.919C339.846 221.46 332.262 225.781 324.643 223.125C324.076 222.877 323.792 223.904 324.43 224.117Z" fill="#E8E8E8"/>
<path d="M417.737 241.187C432.408 242.073 444.493 232.121 458.349 229.11C462.034 228.296 465.932 227.941 469.689 228.579C473.055 229.146 476.103 230.527 479.009 232.298C484.005 235.344 488.86 239.275 494.956 239.7C502.362 240.196 508.918 235.591 514.446 231.271C514.978 230.846 514.234 230.102 513.702 230.527C508.316 234.706 501.866 239.275 494.637 238.602C488.364 238.035 483.403 233.502 478.123 230.562C465.968 223.762 452.962 229.11 441.303 234.246C433.826 237.504 426.065 240.656 417.773 240.16C417.064 240.089 417.064 241.152 417.737 241.187Z" fill="#E8E8E8"/>
<path d="M83.2428 308.904C88.3812 304.016 96.0003 302.104 102.84 303.981C109.998 305.929 114.605 312.091 120.346 316.341C131.792 324.806 147.385 323.46 159.965 318.466C174.813 312.587 187.181 301.962 201.994 295.977C209.223 293.037 217.055 291.16 224.922 291.691C232.576 292.223 239.097 295.516 245.157 299.979C251.181 304.406 256.851 309.648 263.903 312.446C271.451 315.421 279.956 314.783 287.044 310.852C287.646 310.533 287.115 309.612 286.512 309.931C279.283 313.933 270.636 314.287 263.088 310.958C256.78 308.16 251.606 303.485 246.114 299.377C240.479 295.162 234.49 291.869 227.403 290.877C220.102 289.885 212.661 291.125 205.75 293.427C190.618 298.491 178.144 308.939 163.792 315.633C150.539 321.831 133.493 324.735 120.913 315.421C114.64 310.781 109.715 304.158 101.635 302.6C94.7954 301.289 87.5307 303.344 82.4986 308.16C82.0024 308.621 82.7466 309.4 83.2428 308.904Z" fill="#E8E8E8"/>
<path d="M219.394 328.667C225.241 324.877 232.187 323.071 239.168 323.637C245.546 324.169 251.571 326.542 257.418 328.914C263.088 331.217 268.829 333.625 274.924 334.616C281.303 335.644 287.753 334.864 293.883 332.987C301.219 330.721 308.023 327.108 314.72 323.46C315.323 323.142 314.791 322.221 314.189 322.539C301.928 329.162 288.461 336.139 274.074 333.377C262.06 331.075 251.5 323.637 239.132 322.575C231.974 321.973 224.816 323.85 218.827 327.746C218.295 328.135 218.827 329.056 219.394 328.667Z" fill="#E8E8E8"/>
<path d="M353.17 352.679C360.896 345.454 370.393 340.248 380.634 337.592C385.844 336.246 391.195 335.573 396.581 335.608C402.57 335.679 408.524 336.635 414.477 337.202C426.03 338.3 437.122 336.352 447.93 332.137C458.242 328.135 467.952 321.194 479.044 319.494C492.014 317.51 502.043 326.117 510.3 334.935C510.761 335.431 511.505 334.687 511.044 334.192C504.24 326.931 496.231 319.423 485.884 318.254C474.544 316.979 464.231 323.637 454.38 328.206C443.04 333.483 430.814 337.096 418.233 336.387C411.961 336.033 405.759 334.9 399.452 334.581C394.101 334.298 388.714 334.687 383.469 335.785C371.881 338.158 361.073 343.754 352.426 351.864C351.93 352.396 352.674 353.139 353.17 352.679Z" fill="#E8E8E8"/>
<path d="M145.684 128.881C155.606 136.566 168.541 133.166 179.349 129.625C192.745 125.198 206.317 122.4 220.492 122.116C221.165 122.116 221.165 121.054 220.492 121.054C207.451 121.302 194.587 123.533 182.184 127.571C170.951 131.219 156.988 136.354 146.428 128.137C145.896 127.712 145.152 128.456 145.684 128.881Z" fill="#161616"/>
<path d="M241.223 64.4936C253.201 63.6082 264.754 60.279 276.342 57.4811C288.39 54.5415 300.475 52.5936 312.913 53.9394C325.458 55.2853 337.613 59.0748 349.91 61.7665C361.746 64.3873 373.759 65.5915 385.879 64.9894C399.522 64.3165 412.989 61.4478 425.711 56.5603C426.349 56.3123 426.065 55.2853 425.427 55.5332C402.286 64.4228 377.02 66.2998 352.78 61.2707C340.696 58.7561 328.86 55.0728 316.634 53.3019C304.833 51.6019 293.316 52.5582 281.693 55.1082C268.226 58.0478 255.008 62.3686 241.223 63.3957C240.55 63.5019 240.55 64.5644 241.223 64.4936Z" fill="#161616"/>
<path d="M433.011 153.248C443.359 149.423 454.096 154.877 464.444 155.868C470.008 156.4 475.536 155.868 480.958 154.593C486.273 153.319 491.447 151.441 496.869 150.627C502.681 149.741 508.883 150.096 513.915 153.389C514.482 153.779 515.013 152.858 514.446 152.469C505.516 146.66 494.601 149.777 485.175 152.398C479.257 154.062 473.339 155.266 467.173 155.019C461.29 154.806 455.655 153.177 449.915 151.973C444.209 150.804 438.327 150.166 432.763 152.221C432.09 152.433 432.373 153.46 433.011 153.248Z" fill="#161616"/>
<path d="M71.7964 260.702C80.7975 252.698 93.4841 259.781 103.477 261.304C115.03 263.075 126.583 259.887 137.604 256.806C138.277 256.629 137.994 255.602 137.32 255.779C125.13 259.179 112.514 262.543 99.8629 259.533C90.6137 257.337 79.3091 252.662 71.0167 259.958C70.5206 260.383 71.2648 261.127 71.7964 260.702Z" fill="#161616"/>
<path d="M185.126 360.152C187.996 356.752 192.426 354.91 196.891 355.477C199.442 355.796 201.781 356.964 204.12 357.991C206.069 358.841 208.054 359.55 210.074 360.116C218.756 362.525 228.076 362.171 236.545 359.196C237.183 358.983 236.9 357.956 236.262 358.169C226.765 361.462 216.275 361.462 206.813 357.921C202.703 356.398 198.875 353.954 194.304 354.308C190.441 354.591 186.862 356.433 184.346 359.373C183.921 359.939 184.7 360.683 185.126 360.152Z" fill="#161616"/>
<path d="M245.44 357.248C251.89 355.371 258.517 354.45 265.25 354.485C265.923 354.485 265.923 353.423 265.25 353.423C258.446 353.387 251.713 354.344 245.157 356.221C244.519 356.433 244.767 357.46 245.44 357.248Z" fill="#161616"/>
<path d="M253.874 81.9538C260.147 86.7704 266.136 91.9413 271.876 97.4309C272.373 97.8913 273.117 97.1475 272.621 96.6871C266.844 91.1621 260.749 85.9559 254.406 81.0684C253.874 80.6079 253.343 81.5288 253.874 81.9538Z" fill="#161616"/>
<path d="M192.426 100.619C193.028 97.2896 193.666 93.9604 194.268 90.5958C194.41 89.9229 193.382 89.6396 193.241 90.3125C192.638 93.6417 192 96.9708 191.398 100.335C191.292 101.008 192.319 101.292 192.426 100.619Z" fill="#161616"/>
<path d="M396.758 121.727C397.893 121.727 398.814 120.807 398.814 119.673C398.814 118.538 397.893 117.619 396.758 117.619C395.623 117.619 394.703 118.538 394.703 119.673C394.703 120.807 395.623 121.727 396.758 121.727Z" fill="#EC615B"/>
<path d="M128.213 291.373C129.563 291.373 130.658 290.279 130.658 288.929C130.658 287.58 129.563 286.486 128.213 286.486C126.862 286.486 125.768 287.58 125.768 288.929C125.768 290.279 126.862 291.373 128.213 291.373Z" fill="#EC615B"/>
<path d="M116.377 69.9834C119.469 69.9834 121.976 67.4781 121.976 64.3876C121.976 61.2971 119.469 58.7917 116.377 58.7917C113.284 58.7917 110.778 61.2971 110.778 64.3876C110.778 67.4781 113.284 69.9834 116.377 69.9834Z" fill="#EC615B"/>
<path d="M127.61 75.4021C128.648 75.4021 129.489 74.5617 129.489 73.525C129.489 72.4883 128.648 71.6479 127.61 71.6479C126.573 71.6479 125.732 72.4883 125.732 73.525C125.732 74.5617 126.573 75.4021 127.61 75.4021Z" fill="#EC615B"/>
<path d="M234.915 390.434C237.225 390.434 239.097 388.562 239.097 386.254C239.097 383.946 237.225 382.075 234.915 382.075C232.606 382.075 230.734 383.946 230.734 386.254C230.734 388.562 232.606 390.434 234.915 390.434Z" fill="#EC615B"/>
<path d="M429.255 77.2793C431.29 77.2793 432.94 75.6302 432.94 73.5959C432.94 71.5617 431.29 69.9126 429.255 69.9126C427.219 69.9126 425.569 71.5617 425.569 73.5959C425.569 75.6302 427.219 77.2793 429.255 77.2793Z" fill="#EC615B"/>
<path d="M433.968 69.1688C435.22 69.1688 436.236 68.154 436.236 66.9022C436.236 65.6503 435.22 64.6355 433.968 64.6355C432.715 64.6355 431.699 65.6503 431.699 66.9022C431.699 68.154 432.715 69.1688 433.968 69.1688Z" fill="#EC615B"/>
<path d="M122.011 64.1043C125.104 64.1043 127.61 61.5989 127.61 58.5084C127.61 55.4179 125.104 52.9126 122.011 52.9126C118.919 52.9126 116.412 55.4179 116.412 58.5084C116.412 61.5989 118.919 64.1043 122.011 64.1043Z" fill="#5222D0"/>
<path d="M119.212 294.667C120.758 294.667 122.011 293.414 122.011 291.869C122.011 290.323 120.758 289.071 119.212 289.071C117.666 289.071 116.412 290.323 116.412 291.869C116.412 293.414 117.666 294.667 119.212 294.667Z" fill="#5222D0"/>
<path d="M217.622 382.323C218.992 382.323 220.102 381.213 220.102 379.844C220.102 378.475 218.992 377.365 217.622 377.365C216.252 377.365 215.141 378.475 215.141 379.844C215.141 381.213 216.252 382.323 217.622 382.323Z" fill="#5222D0"/>
<path d="M415.647 64.6355C418.895 64.6355 421.529 62.0033 421.529 58.7564C421.529 55.5094 418.895 52.8772 415.647 52.8772C412.398 52.8772 409.764 55.5094 409.764 58.7564C409.764 62.0033 412.398 64.6355 415.647 64.6355Z" fill="#5222D0"/>
<path d="M318.796 153.673C319.5 153.673 320.072 153.102 320.072 152.398C320.072 151.694 319.5 151.123 318.796 151.123C318.091 151.123 317.52 151.694 317.52 152.398C317.52 153.102 318.091 153.673 318.796 153.673Z" fill="#5222D0"/>
<path d="M305.719 77.7751C304.975 79.5105 304.266 81.2814 303.522 83.0168C303.274 83.6543 304.302 83.9376 304.55 83.3001C305.294 81.5647 306.003 79.7939 306.747 78.0584C306.995 77.4209 305.967 77.1376 305.719 77.7751Z" fill="#5222D0"/>
<path d="M305.542 78.625C306.853 80.0063 307.881 81.5646 308.554 83.3355C308.802 83.973 309.83 83.6896 309.582 83.0521C308.802 81.1042 307.704 79.4042 306.286 77.8813C305.826 77.3855 305.046 78.1292 305.542 78.625Z" fill="#5222D0"/>
<path d="M303.806 83.9377C304.833 85.8502 306.003 87.6565 307.314 89.3565C307.739 89.8877 308.661 89.3565 308.235 88.8252C306.924 87.0898 305.755 85.2835 304.727 83.4065C304.373 82.8044 303.487 83.3356 303.806 83.9377Z" fill="#5222D0"/>
<path d="M308.625 83.4062C308.2 85.3896 307.81 87.3729 307.385 89.3562C307.243 90.0291 308.271 90.3125 308.413 89.6396C308.838 87.6562 309.228 85.6729 309.653 83.6896C309.795 83.0521 308.767 82.7687 308.625 83.4062Z" fill="#5222D0"/>
<path d="M405.547 229.394C404.696 230.952 404.129 232.617 403.881 234.387C403.775 235.06 404.803 235.344 404.909 234.671C405.157 233.006 405.653 231.448 406.468 229.96C406.787 229.323 405.866 228.792 405.547 229.394Z" fill="#5222D0"/>
<path d="M405.476 229.713C406.185 231.59 407 233.396 407.921 235.131C408.24 235.733 409.161 235.202 408.842 234.6C407.956 232.935 407.177 231.2 406.504 229.429C406.255 228.792 405.228 229.075 405.476 229.713Z" fill="#5222D0"/>
<path d="M403.669 235.131C404.59 236.442 405.476 237.752 406.397 239.063C406.787 239.629 407.708 239.098 407.319 238.531C406.397 237.221 405.511 235.911 404.59 234.6C404.2 234.034 403.279 234.565 403.669 235.131Z" fill="#5222D0"/>
<path d="M407.531 234.954C406.787 235.981 406.433 237.15 406.433 238.39C406.433 239.063 407.496 239.063 407.496 238.39C407.496 237.327 407.815 236.335 408.453 235.485C408.842 234.919 407.921 234.388 407.531 234.954Z" fill="#5222D0"/>
<path d="M109.112 329.658C108.155 331.748 107.198 333.802 106.242 335.892C105.958 336.494 106.88 337.06 107.163 336.423C108.12 334.333 109.077 332.279 110.033 330.19C110.317 329.588 109.431 329.056 109.112 329.658Z" fill="#5222D0"/>
<path d="M109.289 329.942C110.211 332.138 111.132 334.333 112.053 336.529C112.301 337.167 113.329 336.883 113.081 336.246C112.16 334.05 111.238 331.854 110.317 329.658C110.069 329.021 109.041 329.304 109.289 329.942Z" fill="#5222D0"/>
<path d="M105.994 336.848C106.95 338.725 107.872 340.637 108.829 342.515C109.006 342.833 109.431 342.833 109.679 342.621C110.423 342.019 110.778 340.992 111.167 340.177C111.734 339.044 112.301 337.91 112.868 336.777C113.187 336.175 112.266 335.644 111.947 336.246C111.451 337.237 110.919 338.229 110.423 339.221C109.998 340.071 109.608 341.24 108.864 341.842C109.147 341.877 109.431 341.912 109.714 341.948C108.758 340.071 107.836 338.158 106.879 336.281C106.596 335.715 105.675 336.246 105.994 336.848Z" fill="#5222D0"/>
<path d="M465.791 165.042C464.692 167.131 464.019 169.327 463.7 171.665C463.593 172.338 464.656 172.338 464.763 171.665C465.046 169.504 465.684 167.485 466.676 165.573C467.031 164.971 466.109 164.44 465.791 165.042Z" fill="#5222D0"/>
<path d="M465.649 166.281C466.747 168.406 467.81 170.531 468.909 172.656C469.228 173.259 470.149 172.727 469.83 172.125C468.732 170 467.669 167.875 466.57 165.75C466.251 165.148 465.33 165.679 465.649 166.281Z" fill="#5222D0"/>
<path d="M463.771 171.806C464.656 173.931 465.72 175.915 466.995 177.792C467.385 178.358 468.307 177.827 467.917 177.26C466.676 175.454 465.613 173.542 464.798 171.523C464.55 170.921 463.522 171.204 463.771 171.806Z" fill="#5222D0"/>
<path d="M468.59 172.267C467.952 174.25 467.421 176.269 467.066 178.358C466.96 179.031 467.988 179.314 468.094 178.642C468.448 176.587 468.944 174.569 469.618 172.55C469.83 171.912 468.803 171.629 468.59 172.267Z" fill="#5222D0"/>
<path d="M461.68 336.99C461.254 338.406 460.865 339.787 460.439 341.204C460.262 341.877 461.254 342.125 461.467 341.488C461.892 340.071 462.282 338.69 462.707 337.273C462.92 336.6 461.892 336.317 461.68 336.99Z" fill="#5222D0"/>
<path d="M461.609 337.769C462.247 339.185 462.92 340.602 463.558 341.983C463.841 342.621 464.763 342.054 464.479 341.452C463.841 340.035 463.168 338.619 462.53 337.237C462.247 336.6 461.325 337.131 461.609 337.769Z" fill="#5222D0"/>
<path d="M460.723 341.877C461.042 343.542 461.822 345.029 462.92 346.304C463.381 346.835 464.125 346.056 463.664 345.56C462.672 344.427 462.034 343.081 461.751 341.629C461.609 340.921 460.581 341.204 460.723 341.877Z" fill="#5222D0"/>
<path d="M463.523 341.736C463.062 343.223 462.849 344.746 462.885 346.269C462.92 346.942 463.983 346.942 463.948 346.269C463.912 344.817 464.089 343.4 464.55 342.019C464.763 341.381 463.735 341.098 463.523 341.736Z" fill="#5222D0"/>
<path d="M95.7522 150.131C94.9726 151.831 94.2284 153.531 93.4487 155.231C93.1652 155.833 94.0866 156.4 94.3701 155.763C95.1497 154.063 95.8939 152.363 96.6736 150.663C96.9571 150.061 96.0357 149.494 95.7522 150.131Z" fill="#5222D0"/>
<path d="M93.5904 156.117C94.4055 158.206 95.1851 160.26 96.0001 162.35C96.2482 162.987 97.2759 162.704 97.0278 162.067C96.2128 159.977 95.4331 157.923 94.6181 155.833C94.37 155.196 93.3423 155.479 93.5904 156.117Z" fill="#5222D0"/>
<path d="M95.7521 150.202C96.8507 152.115 97.9492 154.063 99.0478 155.975C99.4022 156.577 100.288 156.046 99.9692 155.444C98.8706 153.531 97.7721 151.583 96.6735 149.671C96.3191 149.069 95.3978 149.6 95.7521 150.202Z" fill="#5222D0"/>
<path d="M99.2958 155.515C98.1618 157.64 97.1696 159.835 96.3191 162.067C96.071 162.704 97.0987 162.988 97.3468 162.35C98.1618 160.19 99.1186 158.065 100.217 156.046C100.536 155.444 99.6148 154.913 99.2958 155.515Z" fill="#5222D0"/>
<path d="M362.88 182.785C363.589 181.44 364.935 180.519 366.495 180.59C367.77 180.625 368.727 181.51 369.861 181.935C371.846 182.644 372.448 181.369 373.936 180.413C375.956 179.067 377.905 182.077 380.067 182.042C381.307 182.006 382.335 181.404 382.371 180.094C382.087 180.235 381.839 180.413 381.556 180.554C382.654 181.121 383.753 181.688 384.816 182.29C385.418 182.608 385.95 181.688 385.347 181.369C384.249 180.802 383.15 180.235 382.087 179.633C381.733 179.456 381.307 179.669 381.272 180.094C381.166 182.608 376.275 179.031 375.354 178.925C373.263 178.642 372.448 181.227 370.641 180.944C368.727 180.625 367.522 179.244 365.467 179.598C363.908 179.881 362.632 180.838 361.923 182.254C361.675 182.856 362.561 183.388 362.88 182.785Z" fill="#5222D0"/>
<path d="M376.453 175.596C378.047 173.825 380.563 176.056 382.371 176.269C384.461 176.517 386.092 174.286 388.111 175.419C389.777 176.375 392.825 178.642 394.03 175.738C394.278 175.1 393.25 174.817 393.002 175.454C392.151 177.508 389.104 174.64 388.076 174.215C386.694 173.613 385.773 174.108 384.532 174.711C383.044 175.419 381.981 175.171 380.563 174.533C379.925 174.25 379.288 174.002 378.579 173.896C377.48 173.754 376.488 173.967 375.708 174.817C375.248 175.348 375.992 176.092 376.453 175.596Z" fill="#5222D0"/>
<path d="M347.677 92.0479C348.173 91.1271 348.74 90.8792 349.378 91.3042C349.662 91.4104 349.945 91.5521 350.229 91.7292C350.548 91.8709 350.867 92.0834 351.186 92.1896C351.753 92.3667 352.32 92.4375 352.887 92.2959C354.41 91.8709 355.19 89.9584 356.82 89.9938C358.344 90.0292 359.443 91.4813 361.037 90.7375C361.711 90.4188 362.171 89.8521 362.809 89.4979C364.227 88.7188 365.963 89.0021 367.168 89.9938C367.7 90.4188 368.444 89.675 367.912 89.25C366.317 87.9396 364.12 87.55 362.278 88.5771C361.462 89.0375 360.789 90.0292 359.726 89.8875C359.124 89.8167 358.592 89.3917 358.025 89.1792C357.175 88.8604 356.395 88.7542 355.544 89.1438C354.481 89.6396 353.773 91.0209 352.603 91.2688C351.115 91.5875 350.122 90.0646 348.74 90.0292C347.429 89.9938 345.905 91.2688 346.791 92.5792C347.146 93.1459 348.067 92.6146 347.677 92.0479Z" fill="#EC615B"/>
<path d="M359.443 85.7792C359.868 83.4771 363.872 85.7084 365.29 85.4605C366.211 85.3188 366.884 84.6813 367.735 84.3626C369.081 83.8313 370.393 84.0438 371.633 84.7876C372.235 85.1417 372.767 84.2209 372.165 83.8667C371.101 83.2292 369.967 82.9105 368.763 83.0167C368.231 83.0521 367.735 83.1938 367.274 83.3709C365.857 83.973 365.29 84.6459 363.518 84.2209C361.817 83.7959 358.911 82.9459 358.45 85.4959C358.273 86.1688 359.301 86.4522 359.443 85.7792Z" fill="#EC615B"/>
<path d="M91.1452 213.775C91.6059 211.544 94.689 214.59 95.2914 214.979C95.9647 215.44 96.7089 215.758 97.524 215.581C98.5871 215.404 99.4022 214.519 100.501 214.271C102.273 213.881 104.044 214.448 105.32 215.723C105.816 216.219 106.561 215.44 106.064 214.979C104.966 213.881 103.619 213.208 102.06 213.102C101.28 213.031 100.501 213.138 99.7565 213.386C98.5871 213.775 97.6657 214.908 96.2482 214.342C94.7599 213.74 94.1929 212.217 92.4919 212.04C91.3933 211.933 90.3656 212.358 90.153 213.492C89.9758 214.165 91.0035 214.448 91.1452 213.775Z" fill="#EC615B"/>
<path d="M102.946 211.225C103.726 210.163 107.305 212.288 108.332 212.535C109.998 212.925 111.699 212.925 113.4 212.713C114.073 212.606 113.79 211.579 113.116 211.685C110.175 212.075 107.907 211.296 105.249 210.233C104.044 209.773 102.84 209.596 102.025 210.694C101.635 211.225 102.556 211.756 102.946 211.225Z" fill="#EC615B"/>
<path d="M189.343 285.458C189.91 284.573 190.796 284.006 191.894 284.006C192.815 284.006 193.382 284.573 194.198 284.821C195.013 285.104 195.686 284.927 196.395 284.467C197.777 283.546 198.45 282.413 200.328 282.483C202.029 282.519 203.659 283.333 205.148 284.077C205.75 284.396 206.282 283.475 205.679 283.156C202.88 281.74 199.478 280.394 196.784 282.696C196.182 283.192 196.111 283.333 195.19 283.51C194.162 283.723 194.268 283.581 193.489 283.263C192.815 282.979 192.178 282.873 191.433 282.944C190.122 283.086 189.095 283.829 188.421 284.892C188.067 285.494 188.988 286.025 189.343 285.458Z" fill="#EC615B"/>
<path d="M201.143 287.513C202.809 286.06 205.963 289.106 208.018 288.823C209.258 288.646 209.825 287.725 210.641 286.875C212.2 285.21 214.539 284.962 216.452 286.202C217.019 286.556 217.551 285.671 216.984 285.281C215.602 284.396 213.972 284.112 212.377 284.573C211.668 284.785 211.03 285.104 210.463 285.565C209.613 286.273 209.081 287.548 207.876 287.76C205.289 288.221 202.844 284.608 200.399 286.769C199.903 287.229 200.647 287.973 201.143 287.513Z" fill="#EC615B"/>
<path d="M152.807 60.35C153.09 59.1813 153.763 58.2604 154.897 57.7646C155.89 57.3396 156.705 57.6229 157.732 57.5875C158.866 57.5167 159.717 56.95 160.39 56.1C161.418 54.825 162.091 53.5146 163.544 52.6646C165.21 51.7084 167.123 51.5313 168.966 52.0979C169.639 52.3104 169.887 51.2834 169.25 51.0709C165.848 50.0438 162.481 51.3542 160.426 54.2229C159.611 55.3563 159.008 56.4896 157.449 56.525C156.492 56.5604 155.677 56.3479 154.756 56.6667C153.196 57.1979 152.133 58.5084 151.779 60.0667C151.602 60.7396 152.629 61.0229 152.807 60.35Z" fill="#EC615B"/>
<path d="M157.803 64.4229C156.279 60.3854 163.58 60.5979 165.777 59.8187C168.505 58.8625 170.844 57.1625 173.148 55.4625C173.679 55.0729 173.148 54.1521 172.616 54.5416C171.057 55.7104 169.462 56.8437 167.761 57.7646C165.635 58.8979 163.615 59.2521 161.312 59.6062C158.866 59.9958 155.677 61.6958 156.811 64.6708C157.024 65.3083 158.051 65.0604 157.803 64.4229Z" fill="#EC615B"/>
<path d="M299.128 267.467C301.821 260.419 306.393 255.814 311.106 251.033C317.307 244.764 328.825 233.112 340.554 234.954C350.548 236.512 349.449 246.11 363.164 253.087C376.098 259.71 381.059 253.158 393.959 260.277C395.872 261.339 409.374 269.025 412.457 283.546C413.733 289.567 413.414 297.819 410.756 298.598C407.744 299.483 406.716 282.129 394.668 275.329C385.454 270.123 372.767 272.637 371.739 276.356C370.641 280.287 383.363 282.873 390.557 296.544C393.711 302.494 394.384 307.912 395.341 315.35C396.227 322.362 397.219 336.742 393.959 337.592C391.266 338.3 389.813 328.702 379.926 320.839C374.716 316.696 369.152 314.996 358.025 311.596C347.996 308.55 342.929 307.062 340.2 309.542C336.16 313.225 339.279 322.575 339.846 324.239C343.815 336.139 353.95 341.098 353.206 342.373C352.213 343.967 333.715 339.362 318.619 324.594C305.719 311.95 291.296 287.902 299.128 267.467Z" fill="#F95B3D"/>
<path d="M414.831 308.514C414.69 309.506 413.946 315.031 417.206 318.573C420.82 322.469 425.215 319.494 429.644 323.354C433.72 326.896 433.188 332.208 434.428 332.102C435.846 331.996 438.007 324.806 434.96 320.45C434.003 319.069 431.664 317.829 427.022 315.421C422.273 312.942 421.635 313.048 420.395 311.702C417.312 308.373 417.773 304.017 416.674 304.017C415.824 304.017 415.079 306.637 414.831 308.514Z" fill="#EC615B"/>
<path d="M384.355 350.094C382.371 353.069 382.583 356.256 382.761 359.621C382.973 363.056 383.115 365.854 385.135 368.369C387.438 371.237 391.265 372.442 391.762 371.804C392.151 371.308 390.415 369.962 388.856 367.023C388.679 366.669 386.375 362.312 386.481 357.212C386.588 350.837 390.344 347.048 389.387 346.375C388.679 345.844 385.95 347.685 384.355 350.094Z" fill="#EC615B"/>
<path d="M398.566 291.373C404.519 295.304 401.259 304.406 405.157 309.719C405.547 310.25 406.468 309.719 406.078 309.187C402.038 303.662 405.476 294.667 399.097 290.452C398.53 290.062 397.999 290.983 398.566 291.373Z" fill="#EC615B"/>
<path d="M396.439 265.731C402.818 270.619 407.248 277.596 409.02 285.423C409.161 286.096 410.189 285.812 410.047 285.139C408.205 277.029 403.598 269.875 397.006 264.846C396.404 264.385 395.872 265.306 396.439 265.731Z" fill="#5222D0"/>
<path d="M375.886 285.352C380.989 289.531 384.993 294.879 387.474 301.006C387.722 301.644 388.749 301.36 388.501 300.723C385.914 294.419 381.91 288.929 376.63 284.608C376.134 284.183 375.354 284.927 375.886 285.352Z" fill="#5222D0"/>
<path d="M389.954 306.85C390.911 309.4 391.549 311.985 391.797 314.677C391.868 315.35 392.931 315.35 392.86 314.677C392.577 311.879 391.939 309.187 390.947 306.567C390.769 305.929 389.742 306.212 389.954 306.85Z" fill="#5222D0"/>
<path d="M335.416 312.729C334.53 318.077 335.558 323.425 338.464 328.029C338.818 328.596 339.739 328.064 339.385 327.498C336.656 323.177 335.593 318.077 336.444 313.012C336.55 312.339 335.522 312.056 335.416 312.729Z" fill="#5222D0"/>
<path d="M339.881 330.933C341.157 333.271 342.787 335.36 344.736 337.167C345.232 337.627 345.976 336.883 345.48 336.423C343.602 334.652 342.043 332.633 340.802 330.402C340.483 329.8 339.562 330.331 339.881 330.933Z" fill="#5222D0"/>
<path d="M299.199 276.958C298.915 280.323 299.234 283.652 300.191 286.91C300.368 287.583 301.396 287.3 301.219 286.627C300.297 283.439 299.979 280.252 300.262 276.958C300.333 276.285 299.27 276.285 299.199 276.958Z" fill="#5222D0"/>
<path d="M301.254 290.523C301.821 293.285 302.849 295.835 304.337 298.244C304.692 298.81 305.613 298.279 305.259 297.712C303.841 295.375 302.849 292.931 302.282 290.239C302.14 289.602 301.112 289.885 301.254 290.523Z" fill="#5222D0"/>
<path d="M208.727 69.1333C207.735 71.825 206.53 75.5083 205.36 79.9708C204.155 84.6104 201.32 96.8291 201.604 112.908C201.887 128.421 204.935 139.825 207.735 149.99C212.093 165.856 217.409 177.26 220.563 183.883C220.563 183.883 230.592 205.098 247.212 227.835C250.153 231.837 253.91 236.902 253.91 236.902C256.638 240.55 258.977 243.596 260.607 245.792C261.919 247.279 263.584 248.944 265.746 250.537C269.786 253.548 273.79 255.071 276.59 255.85C281.197 251.919 285.803 247.952 290.41 244.021C292.501 246.004 294.627 247.952 296.718 249.935C299.624 246.96 302.211 244.587 304.231 242.852C313.019 235.237 320.284 231.342 321.985 230.421C323.438 229.642 324.678 229.04 325.529 228.65C324.218 226.029 322.907 223.408 321.595 220.752C323.722 218.91 326.167 216.962 328.895 215.05C332.581 212.465 336.125 210.375 339.35 208.746C339.314 205.771 338.924 201.273 336.975 196.315C335.522 192.596 333.786 190.081 333.042 189.019C324.856 177.225 348.989 209.737 317.449 164.758C305.223 147.333 299.128 138.585 296.328 134.973C287.575 123.533 280.7 115.706 275.81 110.146C266.455 99.4854 262.238 95.5187 258.836 92.6145C254.193 88.577 249.055 84.2208 241.294 80.1833C236.404 77.6687 232.364 76.2875 226.481 74.2687C219.216 71.7896 213.086 70.1604 208.727 69.1333Z" fill="#4654A3"/>
<path d="M207.628 69.7707C199.938 93.4644 199.938 119.035 205.467 143.189C206.849 149.246 208.585 155.231 210.641 161.075C211.668 164.05 212.909 166.954 214.007 169.894C214.397 170.921 214.468 171.948 214.928 172.975C215.602 174.569 216.311 176.162 217.019 177.756C218.33 180.731 219.713 183.671 221.165 186.61C222.618 189.514 224.39 192.277 225.701 195.217C226.198 196.314 226.623 197.483 227.19 198.546C227.934 199.892 229.033 200.919 229.812 202.229C231.442 204.956 233.002 207.754 234.703 210.446C242.463 222.948 251.287 234.742 260.324 246.323C260.749 246.854 261.493 246.11 261.068 245.579C253.095 235.344 245.298 224.967 238.282 214.094C236.545 211.402 234.88 208.71 233.25 205.948C232.47 204.637 231.69 203.292 230.946 201.946C230.202 200.635 229.21 199.714 228.43 198.439C227.792 197.377 227.332 196.244 226.871 195.11C226.233 193.587 225.383 192.206 224.603 190.754C223.115 188.027 221.732 185.264 220.421 182.467C219.039 179.527 217.728 176.552 216.417 173.577C215.85 172.267 215.637 170.885 215.106 169.539C214.539 168.087 213.936 166.635 213.369 165.148C211.208 159.446 209.329 153.637 207.77 147.723C204.652 135.752 202.844 123.462 202.667 111.067C202.49 97.1478 204.404 83.229 208.727 69.9478C208.833 69.4165 207.806 69.1332 207.628 69.7707Z" fill="black"/>
<path d="M208.124 69.7708C214.043 70.2312 220.067 72.2854 225.631 74.2333C231.123 76.1812 236.545 78.3062 241.577 81.2104C251.606 87.0187 260.466 94.6333 268.545 102.921C276.873 111.456 284.457 120.842 291.792 130.227C299.093 139.577 306.074 149.246 312.807 159.021C320.249 169.894 327.407 180.979 334.424 192.171C334.778 192.737 335.699 192.206 335.345 191.64C322.481 171.204 309.192 151.017 294.415 131.892C280.133 113.369 264.824 94.4562 244.767 81.8833C239.309 78.4479 233.462 75.9687 227.438 73.7374C221.343 71.5062 214.68 69.2041 208.16 68.6729C207.451 68.6729 207.451 69.7354 208.124 69.7708Z" fill="black"/>
<path d="M261.848 246.004C278.362 229.181 296.931 214.412 317.024 202.087C322.694 198.617 328.435 195.358 334.317 192.312C334.92 191.994 334.388 191.073 333.786 191.392C312.913 202.3 293.352 215.723 275.739 231.342C270.707 235.804 265.817 240.444 261.104 245.26C260.607 245.756 261.352 246.5 261.848 246.004Z" fill="black"/>
<path d="M260.82 246.819C265.037 251.529 270.53 254.858 276.661 256.346C277.334 256.523 277.617 255.496 276.944 255.319C270.955 253.831 265.675 250.644 261.564 246.04C261.104 245.544 260.359 246.323 260.82 246.819Z" fill="black"/>
<path d="M334.14 192.596C336.904 197.448 338.499 202.796 338.853 208.356C338.889 209.029 339.952 209.029 339.917 208.356C339.562 202.583 337.897 197.094 335.062 192.064C334.743 191.462 333.821 191.994 334.14 192.596Z" fill="black"/>
<path d="M277.298 256.062C296.47 238.567 317.237 222.912 339.385 209.348C339.952 208.994 339.42 208.073 338.853 208.427C316.67 222.027 295.797 237.752 276.554 255.319C276.058 255.779 276.802 256.523 277.298 256.062Z" fill="black"/>
<path d="M290.658 244.658C292.607 246.571 294.556 248.483 296.506 250.431C296.718 250.644 297.073 250.644 297.25 250.431C302.991 244.339 309.44 238.956 316.492 234.458C318.193 233.36 319.93 232.333 321.702 231.342C322.836 230.704 324.997 230.102 325.671 228.898C326.379 227.694 325.316 226.064 324.749 225.037C323.757 223.231 322.587 221.567 321.312 220.008C320.887 219.477 320.142 220.221 320.568 220.752C321.808 222.275 322.906 223.869 323.828 225.569C324.04 225.923 324.501 226.525 324.537 226.95C324.395 227.587 324.253 228.189 324.111 228.827C323.934 228.933 323.757 229.004 323.58 229.11C322.871 229.642 321.95 229.96 321.17 230.421C318.087 232.156 315.075 234.033 312.169 236.052C306.499 240.054 301.254 244.623 296.506 249.652C296.754 249.652 297.002 249.652 297.25 249.652C295.301 247.739 293.352 245.827 291.403 243.879C290.906 243.419 290.162 244.162 290.658 244.658Z" fill="black"/>
<path d="M210.144 157.356C218.862 147.085 229.068 138.196 239.522 129.731C250.012 121.267 260.997 113.333 273.294 107.702C273.932 107.419 273.365 106.498 272.762 106.781C260.572 112.342 249.693 120.204 239.274 128.563C228.643 137.133 218.26 146.165 209.4 156.577C208.94 157.144 209.684 157.887 210.144 157.356Z" fill="black"/>
<path d="M273.507 112.66C272.337 112.731 271.841 110.783 273.152 110.677C273.613 110.642 274.145 110.854 274.322 111.314C274.57 111.987 273.932 112.696 273.259 112.696C272.762 112.696 272.727 113.51 273.259 113.51C274.357 113.51 275.314 112.483 275.137 111.385C274.995 110.464 274.038 109.898 273.152 109.933C272.195 110.004 271.451 110.783 271.558 111.739C271.664 112.696 272.514 113.581 273.507 113.51C274.038 113.439 274.038 112.625 273.507 112.66Z" fill="black"/>
<path d="M327.62 191.002C327.655 191.002 327.655 191.002 327.691 190.966C327.584 190.966 327.478 190.931 327.372 190.931C327.761 191.108 327.549 190.364 327.513 190.258C327.513 190.152 327.549 190.01 327.584 189.904C327.691 189.691 327.868 189.479 328.08 189.373C328.541 189.16 329.037 189.514 329.179 189.975C329.462 190.896 328.116 191.356 327.761 190.541C327.549 190.081 326.875 190.471 327.088 190.931C327.513 191.923 328.966 191.994 329.675 191.25C330.49 190.364 329.888 188.877 328.789 188.558C327.62 188.239 326.486 189.479 326.769 190.612C326.875 191.073 327.478 191.639 327.939 191.179C328.293 190.825 327.939 190.046 327.407 190.258C326.946 190.435 327.159 191.179 327.62 191.002Z" fill="black"/>
<path opacity="0.15" d="M208.727 69.3459C214.326 72.9584 221.91 78.271 230.202 85.3897C235.34 89.8168 248.665 101.681 265.321 124.702C283.394 149.671 292.43 162.138 294.238 176.056C295.159 183.317 296.435 204 278.184 229.429C285.733 223.692 293.316 217.919 300.864 212.181C304.16 217.6 307.42 223.019 310.716 228.438C307.172 231.058 303.628 233.644 300.085 236.265C301.821 238.354 303.558 240.408 305.294 242.498C307.42 240.444 309.972 238.248 312.913 236.088C317.449 232.758 321.808 230.386 325.564 228.65C324.147 225.923 322.765 223.161 321.347 220.433C327.442 216.431 333.538 212.394 339.633 208.392C339.314 205.381 338.57 201.025 336.621 196.138C334.353 190.4 331.482 186.575 330.384 185.088C322.446 174.356 326.308 176.942 309.688 153.602C297.746 136.815 291.154 127.429 280.594 115.281C273.826 107.49 269.325 102.354 262.131 96.0147C254.477 89.2501 245.192 81.2105 231.017 75.3314C221.98 71.648 214.042 70.0897 208.727 69.3459Z" fill="black"/>
<path opacity="0.11" d="M322.517 172.231C322.198 174.498 321.56 177.969 319.965 181.9C316.28 191.002 310.61 194.969 298.774 206.94C293.174 212.606 284.847 221 285.626 221.921C286.37 222.806 295.478 215.794 311.389 205.31C320.709 199.148 328.541 194.367 333.68 191.25C329.959 184.91 326.238 178.571 322.517 172.231Z" fill="#494949"/>
<path opacity="0.08" d="M334.424 192.313C333.928 192.419 335.132 196.279 333.679 201.096C332.616 204.638 330.809 206.338 326.379 211.685C324.466 213.988 321.666 217.458 318.335 221.921C325.281 217.175 332.227 212.429 339.172 207.683C336.018 195.146 334.849 192.242 334.424 192.313Z" fill="#494949"/>
<path d="M274.57 308.231C274.676 309.258 275.066 310.073 275.668 311.065C278.22 315.173 282.437 317.687 285.485 319.14C284.28 322.929 282.827 328.383 281.764 335.042C280.771 341.452 279.602 348.925 281.126 349.421C281.657 349.598 283.217 349.102 297.71 320.415C299.73 316.412 301.396 313.083 302.495 310.817C294.769 307.346 287.079 303.839 279.354 300.369C278.61 300.935 274.18 304.158 274.57 308.231Z" fill="#161616" stroke="#161616" stroke-width="2" stroke-miterlimit="10"/>
<path d="M258.41 229.889C251.89 234.423 247.673 238.814 243.916 242.781C242.393 244.375 235.092 252.131 227.402 264.314C224 269.698 221.484 274.444 219.748 278.021C219.961 279.473 220.457 281.562 221.768 283.652C223.221 285.989 224.851 287.017 227.402 289.283C230.521 292.046 231.655 293.675 233.462 295.517C236.971 299.129 241.896 301.856 251.606 307.204C263.797 313.898 270.353 316.342 272.373 317.085C274.853 317.971 276.944 318.644 278.432 319.104C279.141 315.81 279.992 312.304 281.055 308.621C282.012 305.327 283.039 302.246 284.067 299.377C276.519 293.852 268.758 287.654 260.891 280.642C258.162 278.233 255.54 275.789 253.024 273.381C255.575 270.3 259.154 266.262 263.69 261.906C265.002 260.631 267.766 258.01 271.132 255.248C275.385 251.812 281.799 247.208 290.658 242.958C292.182 232.794 290.375 223.302 284.811 220.221C277.865 216.396 267.305 223.727 258.41 229.889Z" fill="white"/>
<path d="M251.252 235.167C238.707 245.792 228.324 258.931 220.953 273.629C220.209 275.152 219.146 276.852 219.004 278.552C218.862 280.358 219.961 281.74 220.953 283.121C223.327 286.344 226.02 289.354 228.891 292.152C234.986 297.996 242.003 302.812 249.374 306.885C258.446 311.915 268.049 315.917 277.617 319.883C278.255 320.131 278.539 319.104 277.901 318.856C262.238 312.34 246.255 305.681 233.179 294.596C230.237 292.081 227.438 289.39 224.922 286.45C223.611 284.892 222.299 283.298 221.165 281.633C220.457 280.606 219.925 279.65 220.102 278.34C220.28 277.065 221.024 275.86 221.591 274.692C224.993 267.785 229.068 261.233 233.746 255.106C239.097 248.058 245.228 241.648 251.996 235.946C252.528 235.485 251.784 234.742 251.252 235.167Z" fill="black"/>
<path d="M281.303 247.385C269.148 255.248 258.517 265.2 249.905 276.817C249.516 277.383 250.437 277.915 250.827 277.348C259.332 265.873 269.857 256.027 281.835 248.271C282.402 247.952 281.87 247.031 281.303 247.385Z" fill="black"/>
<path d="M252.421 273.912C262.379 282.908 272.621 291.55 283.181 299.802C283.713 300.227 284.457 299.483 283.925 299.058C273.365 290.806 263.088 282.164 253.166 273.169C252.669 272.708 251.925 273.452 252.421 273.912Z" fill="black"/>
<path d="M283.217 299.66C280.984 305.964 279.248 312.41 277.972 318.962C277.83 319.635 278.858 319.918 278.999 319.246C280.275 312.693 282.047 306.248 284.244 299.943C284.457 299.306 283.429 299.023 283.217 299.66Z" fill="black"/>
<path opacity="0.11" d="M272.125 243.419C267.234 243.844 263.549 247.421 252.173 263.217C247.814 269.273 244.164 274.55 241.365 278.729C245.405 281.563 248.594 283.9 250.614 285.423C261.919 293.888 266.667 298.633 276.271 303.804C278.362 304.937 280.098 305.752 281.126 306.212C281.941 303.981 282.756 301.75 283.535 299.519C280.842 297.181 278.149 294.879 275.42 292.542C267.908 286.167 260.466 280.004 253.059 274.019C256.142 269.698 259.048 266.44 261.174 264.208C267.447 257.656 273.684 253.229 278.539 249.829C280.204 248.66 281.622 247.74 282.543 247.137C277.972 243.631 274.393 243.206 272.125 243.419Z" fill="#494949"/>
<path opacity="0.08" d="M273.542 252.662C270.494 253.371 266.419 254.752 262.273 257.514C252.138 264.279 248.736 274.621 247.744 278.162C253.201 282.412 258.836 286.698 264.683 290.983C270.353 295.162 275.987 299.129 281.48 302.954C282.295 301.785 283.11 300.581 283.89 299.412C276.342 293.923 268.51 287.583 260.678 280.323C258.198 278.056 255.823 275.754 253.555 273.487C254.796 271.858 256.142 270.194 257.56 268.494C262.875 262.189 268.333 256.983 273.542 252.662Z" fill="#494949"/>
<path d="M340.625 296.65C344.382 300.191 348.173 303.769 351.93 307.31C350.938 329.906 352.816 335.219 354.8 335.608C357.883 336.21 363.164 325.55 365.467 317.156C367.203 310.781 367.381 305.185 367.203 301.396C361.321 296.154 355.438 290.912 349.556 285.635C346.579 289.319 343.602 293.002 340.625 296.65Z" fill="#161616" stroke="#161616" stroke-width="2" stroke-miterlimit="10"/>
<path d="M266.88 232.935C267.199 238.814 271.31 242.392 271.31 242.392C273.861 244.623 276.731 245.225 278.149 245.402C279.283 245.862 280.417 246.358 281.586 246.819C283.358 249.369 285.981 252.981 289.454 257.089C294.06 262.614 300.262 269.202 315.429 281.669C322.907 287.796 332.546 295.339 344.204 303.627C345.87 302.812 347.855 301.608 349.839 299.837C354.198 295.977 356.218 291.479 357.139 288.929C355.084 286.946 352.036 283.971 348.492 280.287C332.758 264.031 322.269 250.112 314.26 239.417C308.98 232.369 302.211 222.983 294.734 211.65C277.617 216.325 266.455 225.392 266.88 232.935Z" fill="white"/>
<path d="M272.373 243.737C275.208 244.729 278.007 245.685 280.842 246.677C281.48 246.89 281.764 245.862 281.126 245.65C278.291 244.658 275.491 243.702 272.656 242.71C272.018 242.498 271.735 243.525 272.373 243.737Z" fill="black"/>
<path d="M279.673 245.615C292.997 263.925 310.255 278.729 328.151 292.435C333.29 296.367 338.499 300.263 343.708 304.123C344.275 304.548 344.772 303.592 344.24 303.202C326.309 289.921 308.271 276.463 293.033 260.1C288.603 255.354 284.457 250.325 280.63 245.083C280.204 244.552 279.283 245.083 279.673 245.615Z" fill="black"/>
<path d="M300.581 220.929C313.126 240.16 327.265 258.294 342.858 275.152C347.358 280.039 352.001 284.785 356.714 289.425C357.21 289.921 357.954 289.142 357.458 288.681C341.05 272.602 326.025 255.142 312.559 236.548C308.732 231.271 305.046 225.887 301.467 220.398C301.113 219.831 300.191 220.362 300.581 220.929Z" fill="black"/>
<path d="M356.111 288.752C354.056 294.844 350.087 300.51 344.098 303.202C343.46 303.485 344.027 304.406 344.63 304.123C350.867 301.325 354.977 295.375 357.104 289.035C357.352 288.398 356.324 288.114 356.111 288.752Z" fill="black"/>
<path opacity="0.09" d="M300.616 220.362C298.596 217.635 296.895 215.404 295.761 213.952C294.627 216.041 293.068 219.548 292.926 223.904C292.607 233.75 299.837 237.964 320.568 260.914C329.604 270.902 334.388 276.923 346.047 288.823C348.776 291.585 351.079 293.887 352.745 295.516C354.021 293.285 355.296 291.054 356.608 288.823C345.374 277.56 336.479 267.396 329.817 259.356C323.403 251.6 317.662 244.658 311.744 236.017C310.22 233.856 306.357 228.083 300.616 220.362Z" fill="#494949"/>
<path opacity="0.09" d="M306.889 230.314C307.385 232.758 308.413 236.902 310.433 241.719C316.28 255.46 324.926 261.269 340.484 278.446C343.46 281.739 348.067 286.946 353.454 293.675C354.694 291.904 355.934 290.169 357.175 288.398C356.041 287.335 354.233 285.671 352.036 283.546C347.996 279.65 337.046 268.777 316.138 242.25C313.87 239.417 310.681 235.308 306.889 230.314Z" fill="#494949"/>
<path d="M154.437 191.108C153.692 191.533 152.31 192.277 152.027 193.835C151.673 195.571 152.913 196.987 153.09 197.165C152.877 197.412 152.24 198.156 152.169 199.29C152.098 201.167 153.763 202.265 153.834 202.335C153.763 202.406 152.736 203.469 153.09 204.921C153.374 206.16 154.472 206.692 154.614 206.727C154.543 206.94 154.295 207.86 154.756 208.71C155.464 209.985 157.165 209.915 157.343 209.915C158.547 209.844 159.681 209.029 160.213 207.79C160.886 208.179 162.658 209.1 165.068 208.852C166.698 208.675 167.903 208.037 168.541 207.648C169.817 209.879 171.801 212.89 174.742 215.971C177.329 218.662 182.149 223.727 189.307 225.817C198.237 228.437 206.14 225.037 210.676 223.09C222.866 217.848 228.926 208.215 231.159 204.602C234.915 198.44 236.226 193.162 237.36 188.381C239.203 180.802 238.565 177.827 237.963 176.092C237.608 175.029 235.518 168.937 230.698 168.229C226.765 167.627 223.504 170.992 223.114 171.417C221.768 172.833 221.059 174.71 219.642 178.394C218.933 180.271 218.472 181.687 218.26 182.325C215.956 189.798 214.787 193.517 214.468 194.296C213.617 196.421 211.597 201.273 206.742 205.062C202.1 208.675 197.245 209.454 195.083 209.773C191.823 210.233 187.819 210.8 183.566 208.71C178.818 206.373 176.691 202.123 176.124 200.99C174.423 197.483 174.104 193.587 173.856 190.825C173.537 187.283 173.786 184.521 171.73 182.325C171.34 181.935 170.419 180.944 169.462 181.121C168.08 181.404 167.3 184.06 166.592 186.575C165.989 188.7 166.166 188.948 165.67 189.444C164.643 190.471 163.331 189.94 158.831 190.187C156.209 190.365 155.287 190.648 154.437 191.108Z" fill="white"/>
<path d="M161.772 189.585C157.945 188.877 151.212 189.869 151.743 195.11C152.204 199.821 157.803 200.635 161.17 198.581C161.737 198.227 161.205 197.306 160.638 197.66C157.839 199.36 152.771 198.9 152.771 194.65C152.771 190.542 158.547 190.081 161.489 190.612C162.162 190.754 162.446 189.727 161.772 189.585Z" fill="black"/>
<path d="M152.665 196.846C148.838 201.521 158.051 207.4 160.78 201.521C161.063 200.919 160.142 200.352 159.859 200.989C157.732 205.523 150.645 200.989 153.444 197.589C153.87 197.094 153.125 196.314 152.665 196.846Z" fill="black"/>
<path d="M152.877 201.592C152.062 203.433 152.629 205.771 154.508 206.727C156.35 207.683 158.654 206.798 159.611 205.027C159.93 204.425 159.008 203.894 158.689 204.496C157.98 205.735 156.386 206.444 155.039 205.806C153.693 205.169 153.196 203.433 153.799 202.123C154.082 201.521 153.161 200.989 152.877 201.592Z" fill="black"/>
<path d="M153.728 206.337C153.586 208.215 154.685 209.915 156.598 210.304C158.37 210.658 160 209.49 160.603 207.896C160.851 207.258 159.823 206.975 159.575 207.612C159.114 208.817 157.839 209.596 156.563 209.206C155.252 208.817 154.72 207.612 154.791 206.337C154.826 205.665 153.763 205.665 153.728 206.337Z" fill="black"/>
<path d="M157.094 194.756C158.016 194.65 158.973 194.685 159.752 195.217C160.496 195.712 160.922 196.704 160.496 197.519C160.178 198.121 161.099 198.652 161.418 198.05C161.985 196.952 161.737 195.677 160.886 194.792C159.929 193.765 158.406 193.552 157.059 193.694C156.421 193.8 156.421 194.862 157.094 194.756Z" fill="black"/>
<path d="M160.39 208.604C162.233 207.931 164.005 209.454 165.918 209.241C167.371 209.064 168.647 208.285 169.852 207.577C170.419 207.223 169.887 206.302 169.32 206.656C167.513 207.754 165.954 208.533 163.792 207.896C162.481 207.506 161.453 207.081 160.107 207.577C159.469 207.825 159.717 208.852 160.39 208.604Z" fill="black"/>
<path d="M161.489 190.506C163.331 191.144 165.812 191.25 166.84 189.231C167.407 188.098 167.052 186.717 167.3 185.512C167.584 183.883 168.505 182.537 169.781 181.51C170.313 181.085 169.568 180.342 169.037 180.767C167.655 181.9 166.663 183.458 166.308 185.229C166.131 186.221 166.379 187.389 166.096 188.346C165.458 190.258 163.331 190.01 161.843 189.479C161.134 189.267 160.851 190.294 161.489 190.506Z" fill="black"/>
<path d="M169.001 181.581C172.014 181.971 172.403 187.035 172.9 189.337C173.502 192.348 173.821 195.394 174.388 198.404C175.309 203.221 178.109 207.046 182.574 209.206C187.252 211.437 192.567 211.331 197.458 209.985C202.49 208.569 207.699 206.019 210.959 201.804C211.385 201.273 210.641 200.529 210.215 201.06C206.813 205.452 201.285 208.037 195.969 209.277C190.618 210.517 184.771 210.056 180.306 206.585C175.487 202.867 175.38 197.271 174.423 191.71C173.963 189.089 173.573 186.256 172.616 183.777C172.014 182.219 171.057 180.802 169.32 180.554C168.612 180.448 168.328 181.475 169.001 181.581Z" fill="black"/>
<path d="M168.222 208.285C172.51 213.527 176.656 219.512 182.326 223.373C187.89 227.127 194.765 227.517 201.214 226.454C214.326 224.258 225.453 215.369 231.832 203.894C235.482 197.377 237.644 190.152 238.601 182.75C238.672 182.077 237.609 182.077 237.538 182.75C235.908 195.394 230.379 207.789 220.528 216.148C215.673 220.256 209.896 223.337 203.695 224.825C197.281 226.383 189.874 226.596 184.027 223.16C177.79 219.512 173.431 212.996 168.966 207.506C168.541 207.01 167.797 207.754 168.222 208.285Z" fill="black"/>
<path d="M231.194 168.087C228.253 166.919 225.134 168.442 223.079 170.602C220.669 173.081 219.464 176.375 218.579 179.633C217.551 183.423 216.629 187.177 215.177 190.825C213.617 194.756 211.633 198.475 209.365 202.017C208.975 202.583 209.896 203.115 210.286 202.548C213.936 196.917 216.736 190.79 218.472 184.308C219.394 180.908 219.996 177.367 221.697 174.285C223.398 171.169 227.013 167.556 230.911 169.114C231.549 169.362 231.832 168.335 231.194 168.087Z" fill="black"/>
<path d="M158.689 205.771C159.681 205.841 159.469 207.506 159.292 208.108C159.079 208.746 160.107 209.029 160.319 208.391C160.78 207.046 160.461 204.85 158.689 204.708C158.016 204.673 158.016 205.735 158.689 205.771Z" fill="black"/>
<path d="M159.292 202.512C159.504 203.362 159.185 204.248 158.512 204.744C157.945 205.133 158.477 206.054 159.044 205.664C160.142 204.885 160.674 203.539 160.319 202.229C160.178 201.556 159.15 201.839 159.292 202.512Z" fill="black"/>
<path d="M159.894 198.829C160.851 199.289 160.213 200.812 159.752 201.414C159.327 201.946 160.248 202.477 160.674 201.946C161.489 200.883 161.914 198.617 160.426 197.908C159.823 197.625 159.292 198.546 159.894 198.829Z" fill="black"/>
<path opacity="0.11" d="M152.594 198.971C153.161 198.652 154.082 200.635 156.457 201.627C157.343 201.981 158.441 202.229 163.473 201.627C165.103 201.415 167.23 201.131 169.781 200.671C170.277 202.69 171.305 205.735 173.396 208.887C174.282 210.198 177.861 215.298 184.771 218.308C192.178 221.567 198.875 220.469 201.462 220.008C203.659 219.619 209.79 218.45 215.247 213.704C218.898 210.552 221.236 206.727 224.674 196.775C227.013 190.01 229.848 180.625 231.938 168.973C233.356 170.425 235.553 173.046 236.793 176.942C237.396 178.819 237.963 181.581 237.502 185.902C236.545 195.217 231.868 202.973 229.033 206.94C226.091 211.083 220.847 218.237 211.137 222.665C209.825 223.267 202.419 226.49 192.993 226.065C190.831 225.958 188.846 225.852 186.401 224.967C183.743 224.01 181.086 221.531 175.805 216.644C173.608 214.625 171.447 212.5 169.25 209.419C168.824 208.817 168.47 208.285 168.222 207.931C167.478 208.427 166.379 208.994 165.139 208.852C163.473 208.71 162.906 207.506 161.524 207.719C160.319 207.896 160.319 208.887 158.866 209.419C157.732 209.808 156.138 209.773 155.075 208.958C154.295 208.356 154.189 207.683 153.303 203.858C152.452 200.104 152.204 199.183 152.594 198.971Z" fill="#494949"/>
<path d="M226.765 168.902C227.261 172.302 228.218 177.686 230.202 184.061C234.384 197.377 239.309 203.079 245.83 218.521C247.46 222.382 249.764 228.19 252.032 235.521C256.249 236.902 264.08 238.779 273.648 237.115C289.383 234.388 298.632 223.975 301.219 220.823C295.832 210.907 290.41 200.175 285.13 188.665C279.885 177.261 275.314 166.282 271.345 155.834C268.014 154.594 259.296 151.832 248.594 154.452C235.801 157.534 228.749 166.282 226.765 168.902Z" fill="#F95B3D"/>
<path opacity="0.13" d="M257.879 153.248C259.225 156.081 260.926 159.942 262.734 164.617C268.404 179.492 270.459 191.71 271.203 196.067C272.798 205.062 274.18 219.017 271.912 236.937C276.838 236.796 280.488 235.662 282.791 234.777C289.383 232.156 294.167 227.587 298.774 223.16C299.837 222.169 300.652 221.283 301.183 220.752C299.66 218.131 297.356 214.023 294.663 208.887C286.867 194.083 281.764 181.794 277.476 171.381C275.952 167.733 273.861 162.492 271.416 156.152C269.467 155.337 267.022 154.523 264.151 153.992C261.812 153.531 259.686 153.319 257.879 153.248Z" fill="#494949"/>
<path opacity="0.1" d="M281.338 181.333C281.941 187.673 282.437 192.985 282.791 196.81C284.138 211.792 284.386 215.935 284.492 218.592C284.776 224.86 284.776 229.996 284.74 233.36C286.937 232.581 289.772 231.306 292.714 229.252C296.399 226.667 298.88 223.833 300.475 221.744C294.096 208.25 287.717 194.792 281.338 181.333Z" fill="#494949"/>
<path d="M256.177 147.014C254.476 147.51 253.555 149.953 252.988 152.468C251.854 157.603 252.456 161.995 252.669 163.518C253.697 170.283 255.539 175.347 256.142 177.012C257.701 181.12 259.827 186.61 264.47 192.454C267.127 195.783 269.395 198.651 273.577 200.776C276.022 202.051 281.09 204.637 286.299 202.583C286.547 202.476 291.65 200.387 292.961 195.924C293.245 194.933 293.316 193.941 293.422 191.993C293.493 190.824 293.528 188.77 293.28 186.22C292.926 182.856 292.182 180.235 291.615 178.358C289.099 170.035 287.858 165.891 285.236 162.278C283.074 159.303 280.629 155.903 276.589 155.443C276.235 155.408 272.159 155.018 269.75 157.851C268.084 159.835 268.19 162.278 268.226 163.908C268.332 167.024 269.537 169.256 271.415 172.691C273.293 176.091 274.038 176.516 276.27 180.553C279.318 186.078 278.999 186.61 278.857 186.751C278.255 187.283 275.845 185.618 275.313 185.228C274.817 184.874 274.109 184.379 273.223 183.422C270.458 180.341 268.828 175.701 268.828 175.701C267.375 172.833 265.462 168.76 263.513 163.589C264.115 161.287 265.037 159.658 265.781 158.595C266.986 156.895 268.332 155.726 268.651 153.601C268.793 152.787 268.722 152.078 268.651 151.618C269.254 151.051 269.431 150.201 269.112 149.493C268.722 148.678 267.765 148.289 266.844 148.572C266.844 148.466 266.738 147.545 265.922 147.049C265.249 146.624 264.328 146.695 263.654 147.191C262.591 146.376 261.705 146.164 261.068 146.128C260.323 146.093 259.969 146.27 258.197 146.589C256.709 146.978 256.602 146.908 256.177 147.014Z" fill="white"/>
<path d="M265.073 161.961C266.029 159.588 267.234 157.427 268.545 155.231C269.219 154.098 269.998 152.681 269.077 151.442C266.986 148.75 264.151 152.186 263.265 153.956C262.946 154.558 263.868 155.09 264.187 154.488C264.718 153.425 265.321 152.115 266.561 151.761C266.915 151.583 267.27 151.583 267.66 151.69C267.766 152.504 267.872 153.319 268.014 154.133C267.908 154.594 267.27 155.338 267.022 155.763C265.888 157.64 264.966 159.623 264.116 161.642C263.797 162.315 264.825 162.563 265.073 161.961Z" fill="black"/>
<path d="M253.485 166.528C252.953 162.739 252.882 158.878 253.307 155.089C253.697 151.618 254.441 146.341 259.261 147.332C259.934 147.474 260.218 146.447 259.544 146.305C255.753 145.526 253.378 148.218 252.74 151.653C251.784 156.647 251.748 161.747 252.457 166.811C252.563 167.484 253.591 167.201 253.485 166.528Z" fill="black"/>
<path d="M257.914 150.202C258.304 149.281 258.729 148.325 259.473 147.617C260.749 146.377 262.379 147.05 263.761 147.723C264.364 148.042 264.895 147.121 264.293 146.802C262.84 146.058 261.21 145.35 259.651 146.164C258.304 146.873 257.595 148.325 257.028 149.635C256.745 150.308 257.666 150.839 257.914 150.202Z" fill="black"/>
<path d="M261.068 150.521C262.379 148.821 264.116 147.05 266.384 148.396C266.986 148.75 267.518 147.829 266.915 147.475C264.222 145.881 261.954 147.616 260.324 149.741C259.899 150.308 260.643 151.052 261.068 150.521Z" fill="black"/>
<path d="M263.443 151.3C264.116 150.591 264.825 149.848 265.746 149.494C266.845 149.033 268.864 149.316 268.439 150.981C268.297 151.654 269.29 151.937 269.467 151.264C269.821 149.812 268.864 148.466 267.412 148.219C265.462 147.864 263.939 149.281 262.698 150.556C262.238 151.052 262.982 151.796 263.443 151.3Z" fill="black"/>
<path d="M263.868 161.429C262.627 164.085 264.151 166.777 265.214 169.221C266.703 172.656 268.262 176.092 270.176 179.279C272.656 183.458 278.043 190.967 283.677 186.681C284.209 186.256 283.677 185.335 283.146 185.76C277.724 189.904 272.692 181.546 270.495 177.685C269.219 175.419 268.085 173.081 267.022 170.708C265.959 168.335 263.584 164.617 264.825 161.96C265.073 161.358 264.151 160.792 263.868 161.429Z" fill="black"/>
<path d="M268.439 158.737C265.321 169.327 274.889 177.544 278.397 186.61C278.645 187.248 279.673 186.964 279.425 186.327C276.023 177.544 266.455 169.256 269.467 159.021C269.644 158.348 268.616 158.064 268.439 158.737Z" fill="black"/>
<path d="M252.421 166.246C254.229 176.162 258.446 185.548 264.647 193.517C267.66 197.342 271.097 201.06 275.846 202.619C279.886 203.929 285.449 204.602 289.206 202.158C293.316 199.537 293.848 194.189 294.025 189.762C294.061 189.089 292.997 189.089 292.962 189.762C292.749 195.464 291.474 201.769 284.705 202.583C278.468 203.327 272.656 200.848 268.439 196.35C260.607 188.027 255.469 177.154 253.414 165.962C253.343 165.289 252.315 165.573 252.421 166.246Z" fill="black"/>
<path d="M269.148 160.154C270.282 155.621 275.739 155.302 279.141 157.285C282.614 159.304 284.988 162.952 286.725 166.458C288.532 170.142 289.843 174.108 291.119 178.004C292.572 182.467 293.671 187.142 292.926 191.852C292.82 192.525 293.848 192.808 293.954 192.135C294.805 186.752 293.458 181.546 291.722 176.446C290.127 171.806 288.568 167.025 285.91 162.846C283.677 159.304 280.346 155.621 275.952 155.019C272.55 154.558 268.935 156.4 268.085 159.871C267.943 160.544 268.971 160.827 269.148 160.154Z" fill="black"/>
<path opacity="0.1" d="M257.489 146.553C260.324 145.42 263.088 146.66 263.761 146.978C261.776 149.599 257.559 155.939 257.205 164.899C256.674 177.649 264.293 186.114 266.986 189.124C270.459 192.985 274.995 198.014 280.842 197.306C284.138 196.916 287.256 194.72 288.851 191.922C290.445 189.124 290.339 186.078 288.425 178.216C285.484 166.316 282.259 159.339 282.72 159.126C283.181 158.914 287.008 164.899 289.878 172.408C290.162 173.187 292.536 179.491 293.387 188.168C293.918 193.516 293.458 195.712 292.359 197.66C290.658 200.67 287.894 202.016 286.831 202.476C282.543 204.283 278.432 203.008 276.483 202.335C269.502 199.997 265.781 194.331 262.025 188.628C256.248 179.81 254.654 172.266 253.13 165.006C252.067 159.976 251.358 154.133 254.016 149.847C254.476 148.962 255.504 147.368 257.489 146.553Z" fill="#494949"/>
<path d="M206.317 129.306C206.211 130.971 206.813 132.848 208.089 136.602C209.507 140.817 211.03 145.315 214.858 149.742C217.303 152.575 220.28 156.046 225.347 157.037C229.352 157.817 232.718 156.683 234.419 155.975C234.809 157.037 235.341 158.171 236.014 159.34C237.786 162.456 239.983 164.652 241.719 166.104C243.03 165.962 245.582 165.431 247.779 163.448C249.48 161.89 250.295 160.048 250.791 158.844C251.394 157.427 251.713 156.187 251.854 155.302C250.791 154.665 249.622 153.815 248.488 152.646C244.944 149.033 243.987 144.748 243.704 142.694C244.164 138.621 244.661 134.512 245.121 130.44C245.653 130.51 246.787 130.581 247.779 129.908C248.878 129.165 249.09 127.925 249.374 126.544C249.657 125.162 249.976 123.392 249.197 121.373C248.842 120.487 247.708 117.654 245.298 117.477C243.668 117.335 242.003 118.433 241.046 120.133C238.991 118.15 234.596 114.644 228.43 114.077C217.764 113.085 206.92 121.408 206.317 129.306Z" fill="white"/>
<path d="M222.051 145.492C221.768 146.235 222.583 147.298 223.185 147.829C224.851 149.281 227.792 149.21 229.919 148.219C232.895 146.837 233.852 143.862 234.277 142.517C234.773 141.029 235.411 139.081 234.384 137.346C233.498 135.823 231.938 135.292 231.336 135.115C230.734 136.354 230.273 137.275 229.919 137.877C229.493 138.621 229.352 138.869 229.103 139.435C228.749 140.179 228.714 140.462 228.218 141.135C226.198 143.756 223.433 144.712 223.433 144.712C222.796 144.854 222.229 144.996 222.051 145.492Z" fill="black"/>
<path d="M206.884 133.556C209.684 142.304 213.192 152.504 222.229 156.612C225.914 158.277 230.308 158.596 234.065 156.967C238.282 155.16 240.762 150.981 242.464 146.944C244.696 141.667 245.653 135.929 245.299 130.227C245.263 129.554 244.2 129.554 244.235 130.227C244.59 136.177 243.527 142.162 241.011 147.581C238.565 152.858 234.703 157.073 228.501 157.002C216.027 156.86 210.96 143.119 207.841 133.308C207.699 132.6 206.707 132.883 206.884 133.556Z" fill="black"/>
<path d="M241.436 121.125C241.471 119 243.668 117.725 245.617 118.327C247.425 118.929 248.559 120.7 248.949 122.471C249.303 124.171 249.161 126.154 248.63 127.783C248.204 129.129 247.673 129.837 246.043 129.837C245.476 129.837 244.909 129.625 244.306 129.625C243.633 129.625 243.633 130.687 244.306 130.687C245.511 130.687 246.681 131.254 247.85 130.652C248.7 130.227 249.197 129.377 249.551 128.491C250.472 126.083 250.579 122.825 249.409 120.452C248.452 118.504 246.397 116.839 244.129 117.087C242.038 117.3 240.408 119 240.373 121.089C240.373 121.798 241.436 121.798 241.436 121.125Z" fill="black"/>
<path d="M243.527 140.533C243.42 146.377 246.007 151.973 250.614 155.621C251.146 156.046 251.89 155.302 251.358 154.877C246.964 151.406 244.483 146.165 244.59 140.533C244.59 139.86 243.527 139.86 243.527 140.533Z" fill="black"/>
<path d="M234.384 156.4C235.73 160.119 237.927 163.377 240.869 165.998C241.365 166.458 242.145 165.714 241.613 165.254C238.778 162.739 236.687 159.658 235.376 156.116C235.163 155.479 234.136 155.762 234.384 156.4Z" fill="black"/>
<path d="M241.117 166.352C244.164 167.45 247.212 164.864 249.09 162.704C251.075 160.437 252.811 157.498 251.961 154.417C251.784 153.744 250.756 154.027 250.933 154.7C251.642 157.391 250.047 160.012 248.311 161.96C246.681 163.802 244.023 166.281 241.365 165.325C240.762 165.077 240.479 166.104 241.117 166.352Z" fill="black"/>
<path d="M210.853 129.837C210.393 128.527 211.456 127.11 212.235 126.189C213.405 124.737 215.212 124.348 216.559 125.835C218.118 127.535 218.543 130.581 218.756 132.777C218.898 134.3 218.366 136.248 219.252 137.594C220.209 139.046 221.981 139.896 223.646 140.214C224.319 140.356 224.603 139.329 223.93 139.187C223.044 139.01 222.264 138.727 221.484 138.231C220.209 137.381 219.925 136.46 219.89 134.937C219.854 133.627 219.819 132.352 219.606 131.042C219.252 128.881 218.649 126.119 216.878 124.667C215.389 123.427 213.546 123.462 212.094 124.702C210.711 125.906 209.117 128.208 209.79 130.085C210.074 130.758 211.101 130.475 210.853 129.837Z" fill="black"/>
<path d="M220.669 122.187C220.917 117.902 226.269 116.344 228.749 119.85C229.139 120.416 230.06 119.885 229.671 119.319C226.587 114.927 219.925 116.804 219.606 122.187C219.571 122.86 220.634 122.86 220.669 122.187Z" fill="black"/>
<path d="M215.85 132.671C215.354 131.998 215.07 131.254 215.035 130.44C214.751 130.581 214.503 130.758 214.22 130.9C215.035 131.431 215.46 132.281 215.425 133.237C215.637 133.06 215.885 132.883 216.098 132.742C215.212 132.423 214.645 131.431 214.822 130.51C214.574 130.617 214.291 130.723 214.043 130.829C214.468 131.077 214.822 131.431 215.07 131.892C215.177 132.104 215.247 132.317 215.283 132.565C215.283 132.742 215.283 132.529 215.247 132.458C215.177 132.317 215.106 132.21 215.035 132.069C214.751 131.431 213.83 131.998 214.113 132.6C214.326 133.096 214.68 133.627 215.318 133.662C215.85 133.698 216.311 133.344 216.381 132.812C216.488 131.644 215.566 130.475 214.61 129.944C214.326 129.767 213.901 129.908 213.83 130.262C213.546 131.785 214.397 133.273 215.85 133.804C216.204 133.91 216.523 133.627 216.523 133.308C216.559 131.962 215.921 130.758 214.787 130.05C214.468 129.837 213.972 130.121 213.972 130.51C214.007 131.502 214.326 132.458 214.928 133.273C215.354 133.769 216.275 133.237 215.85 132.671Z" fill="black"/>
<path d="M225.772 125.835C225.595 125.623 225.453 125.375 225.383 125.091C225.383 125.021 225.312 124.596 225.383 124.56C225.453 124.525 225.631 125.091 225.666 125.127C225.737 125.41 225.701 125.729 225.56 125.977C225.808 125.906 226.056 125.835 226.304 125.8C225.418 125.304 224.993 124.383 225.134 123.391C224.851 123.533 224.603 123.71 224.319 123.852C225.312 124.277 225.879 125.304 225.631 126.366C225.843 126.26 226.056 126.119 226.268 126.012C225.737 125.835 225.312 125.375 225.205 124.808C225.205 124.773 225.205 124.454 225.17 124.454C225.099 124.489 225.028 124.525 224.922 124.56C224.957 124.631 225.028 124.737 225.064 124.808C225.205 125.198 225.205 125.587 225.17 126.012C225.489 125.871 225.772 125.764 226.091 125.623C225.772 125.375 225.524 125.091 225.347 124.702C225.028 124.1 224.107 124.631 224.426 125.233C224.638 125.658 224.957 126.048 225.347 126.366C225.737 126.685 226.198 126.473 226.268 125.977C226.339 125.269 226.268 124.312 225.737 123.781C225.312 123.356 224.532 123.321 224.249 123.958C223.682 125.198 224.886 126.65 225.985 127.039C226.268 127.146 226.587 126.933 226.623 126.685C227.013 125.198 226.268 123.569 224.816 122.966C224.426 122.789 224.071 123.002 224 123.427C223.823 124.773 224.532 126.083 225.701 126.756C225.914 126.898 226.304 126.827 226.446 126.579C226.729 125.906 226.8 125.233 226.552 124.56C226.339 124.029 225.879 123.462 225.276 123.533C223.717 123.71 224.39 125.941 225.028 126.65C225.489 127.11 226.233 126.331 225.772 125.835Z" fill="black"/>
<path d="M235.022 156.294C235.022 156.329 235.022 156.329 234.986 156.365C235.199 156.258 235.411 156.117 235.624 156.011C235.589 156.011 235.553 155.975 235.518 155.975C235.624 156.223 235.73 156.506 235.837 156.754C235.908 156.613 236.864 156.152 237.148 155.904C237.786 155.373 238.317 154.665 238.813 153.992C239.912 152.54 240.727 150.946 241.4 149.281C241.046 149.175 240.727 149.104 240.373 148.998C239.31 152.044 238.565 156.294 235.589 158.1C235.837 158.348 236.085 158.596 236.333 158.844C237.042 157.781 237.75 156.683 238.459 155.621C238.778 155.125 238.034 154.523 237.609 154.983C237.042 155.586 236.439 156.223 235.872 156.825C236.12 157.073 236.368 157.321 236.616 157.569C237.148 156.931 237.644 156.258 238.105 155.586C238.459 155.09 237.679 154.488 237.254 154.948C236.758 155.479 236.262 155.869 235.624 156.188C235.908 156.329 236.156 156.506 236.439 156.648C236.439 156.542 236.404 156.436 236.404 156.329C236.333 155.656 235.27 155.656 235.341 156.329C235.341 156.436 235.376 156.542 235.376 156.648C235.411 157.038 235.801 157.321 236.191 157.108C236.9 156.719 237.467 156.294 238.034 155.692C237.75 155.479 237.467 155.267 237.183 155.054C236.758 155.656 236.333 156.258 235.872 156.825C235.447 157.356 236.156 158.1 236.616 157.569C237.183 156.967 237.786 156.329 238.353 155.727C238.069 155.515 237.786 155.302 237.502 155.09C236.793 156.152 236.085 157.25 235.376 158.313C235.092 158.773 235.659 159.304 236.12 159.056C239.38 157.073 240.231 152.681 241.4 149.317C241.613 148.644 240.621 148.431 240.373 149.033C239.628 150.84 238.672 152.611 237.396 154.098C236.793 154.806 235.837 155.196 235.27 155.833C235.128 155.975 234.986 156.011 234.915 156.188C234.738 156.506 234.88 156.825 235.234 156.967C235.27 156.967 235.305 157.002 235.341 157.002C235.624 157.108 235.908 156.896 235.978 156.648C235.978 156.613 235.978 156.613 236.014 156.577C236.297 155.94 235.27 155.656 235.022 156.294Z" fill="black"/>
<path d="M238.955 155.231C239.274 154.877 239.487 154.523 239.593 154.098C239.77 153.46 238.955 153.248 238.636 153.673C237.892 154.664 237.148 155.656 236.404 156.648C235.978 157.179 236.9 157.71 237.325 157.179C238.069 156.187 238.813 155.196 239.558 154.204C239.239 154.062 238.92 153.921 238.601 153.779C238.53 154.027 238.424 154.239 238.246 154.452C237.75 155.019 238.53 155.762 238.955 155.231Z" fill="black"/>
<path d="M222.583 146.448C221.591 144.465 222.654 143.721 224.638 143.19C224.886 143.119 225.135 143.083 225.347 142.977C226.198 142.588 226.694 141.737 227.048 140.923C227.615 139.719 227.934 138.408 228.678 137.31C230.238 134.938 233.002 135.044 233.888 137.877C234.774 140.71 233.675 143.862 231.797 146.023C230.875 147.085 229.741 148.077 228.395 148.537C227.225 148.962 226.198 148.821 225.064 148.325C224.249 147.971 222.76 147.263 222.548 146.342C222.406 145.669 221.378 145.952 221.52 146.625C221.91 148.467 224.674 149.6 226.339 149.848C228.147 150.131 229.848 149.246 231.23 148.113C234.313 145.563 236.226 141.065 234.738 137.169C233.143 132.954 228.82 134.513 227.225 137.842C226.729 138.869 226.481 140.604 225.666 141.348C224.638 142.304 223.327 141.95 222.264 142.694C220.776 143.756 220.917 145.633 221.662 147.085C221.981 147.617 222.902 147.085 222.583 146.448Z" fill="black"/>
<path d="M221.874 145.35C227.367 145.208 230.025 140.108 231.23 135.433C231.407 134.76 230.379 134.477 230.202 135.15C229.139 139.329 226.835 144.146 221.874 144.287C221.201 144.323 221.201 145.385 221.874 145.35Z" fill="black"/>
<path d="M207.309 132.99C206.672 133.344 202.809 129.129 201.179 123.498C199.974 119.39 200.328 115.742 200.754 113.439C201.356 111.598 202.206 109.614 203.376 107.596C208.408 98.9541 216.346 94.8812 220.457 93.1458C219.606 93.9603 218.614 95.0228 217.693 96.3687C216.417 98.1395 215.602 99.8041 215.07 101.185C216.275 100.158 217.657 99.1312 219.146 98.1395C222.477 95.9083 225.702 94.3145 228.501 93.1812C228.076 94.9874 227.615 96.7937 227.19 98.5645C228.182 97.9978 229.564 97.1833 231.265 96.3687C233.143 95.4833 237.006 93.6416 237.609 94.4562C237.786 94.7041 237.573 94.9874 237.254 96.0145C236.829 97.3603 236.687 98.4937 236.616 99.2374C237.715 99.0603 238.955 98.9187 240.302 98.8833C241.79 98.8124 243.137 98.8833 244.342 98.9895C243.916 100.619 243.491 102.212 243.066 103.842C243.916 104.16 245.121 104.762 246.362 105.754C249.693 108.481 250.65 112.164 250.898 113.617C251.429 117.087 250.579 119.992 249.941 121.585C248.24 117.973 244.873 116.556 242.96 117.442C241.79 117.973 240.444 119.673 240.585 121.408C240.621 121.798 240.727 122.152 240.833 122.4C239.593 121.267 237.715 119.744 235.27 118.327C232.824 116.91 230.096 115.317 226.481 114.856C219.677 113.971 214.362 117.69 212.944 118.717C210.747 120.275 207.168 122.79 206.53 126.792C205.892 130.156 207.806 132.742 207.309 132.99Z" fill="#161616"/>
<path opacity="0.11" d="M234.277 117.442C235.376 119.921 236.864 123.781 237.679 128.633C238.53 133.45 239.593 139.648 237.006 146.519C236.12 148.856 234.029 153.354 229.068 157.569C230.238 157.533 232.257 157.321 234.384 156.187C237.857 154.381 239.38 151.371 239.841 150.308C241.507 151.937 243.739 154.487 245.44 158.1C246.397 160.119 246.999 161.996 247.354 163.554C248.311 162.704 250.083 160.862 250.898 157.958C251.217 156.825 251.323 155.798 251.323 154.948C249.267 153.814 247.956 152.433 247.212 151.548C246.893 151.158 243.739 147.192 243.916 141.702C243.987 139.719 244.413 139.683 244.731 136.637C245.015 133.91 244.873 131.608 244.731 130.085C246.539 130.829 247.46 130.475 247.885 130.227C248.7 129.731 248.913 128.846 249.657 124.348C250.047 121.939 250.26 120.735 250.331 120.098C250.756 116.662 250.968 114.927 250.756 113.546C250.153 109.614 247.637 106.994 246.787 106.179C245.369 104.798 243.916 104.019 242.96 103.594C243.385 102.106 243.775 100.583 244.2 99.0957C242.18 101.469 240.302 103.098 239.026 104.16C235.837 106.71 233.994 107.312 231.797 109.756C230.06 111.669 229.068 113.617 228.501 114.927C230.45 115.812 232.364 116.627 234.277 117.442Z" fill="#494949"/>
<path opacity="0.17" d="M219.677 93.5352C218.472 94.0664 215.637 95.5539 213.653 98.706C213.157 99.4852 212.058 101.433 211.739 104.16C211.385 107.171 212.129 109.543 212.554 110.712C212.696 107.773 213.405 103.027 216.24 98.1393C217.338 96.2977 218.543 94.7747 219.677 93.5352Z" fill="#494949"/>
<path opacity="0.08" d="M244.731 130.263C244.625 130.227 244.412 130.617 243.633 133.308C242.57 136.956 242.003 139.648 241.684 140.994C241.223 142.942 240.443 145.704 238.991 149.033C241.507 149.529 244.023 150.025 246.539 150.486C245.617 148.467 244.519 145.563 244.094 141.95C243.42 135.752 245.086 130.333 244.731 130.263Z" fill="#494949"/>
</svg>
