<svg width="404" height="249" viewBox="0 0 404 249" fill="none" xmlns="http://www.w3.org/2000/svg">
<path d="M80.6638 23.9138C82.1595 23.9138 83.3702 24.4124 84.2963 25.4096C85.2933 26.3355 85.7921 27.5463 85.7921 29.0421C85.7921 30.5378 85.2933 31.7843 84.2963 32.7814C83.3702 33.7074 82.1595 34.1703 80.6638 34.1703H57.6935V101.799C57.6935 103.366 57.1593 104.684 56.0909 105.752C55.0225 106.821 53.7049 107.355 52.1379 107.355C50.5709 107.355 49.2532 106.821 48.1848 105.752C47.1164 104.684 46.5823 103.366 46.5823 101.799V34.1703H23.5051C22.0093 34.1703 20.7629 33.7074 19.7657 32.7814C18.8398 31.7843 18.3768 30.5378 18.3768 29.0421C18.3768 27.5463 18.8398 26.3355 19.7657 25.4096C20.7629 24.4124 22.0093 23.9138 23.5051 23.9138H80.6638ZM126.084 48.3799C130.999 48.3799 135.415 49.4483 139.332 51.585C143.25 53.7218 146.313 56.8557 148.52 60.9869C150.729 65.0467 151.832 69.9613 151.832 75.7306V102.013C151.832 103.58 151.298 104.898 150.23 105.966C149.233 106.963 147.951 107.462 146.384 107.462C144.817 107.462 143.499 106.963 142.431 105.966C141.434 104.898 140.935 103.58 140.935 102.013V75.7306C140.935 69.9613 139.368 65.6163 136.234 62.6963C133.172 59.7048 129.076 58.209 123.947 58.209C120.956 58.209 118.214 58.8147 115.721 60.0253C113.3 61.236 111.376 62.8745 109.952 64.9399C108.599 67.0052 107.922 69.3203 107.922 71.8844V102.013C107.922 103.58 107.423 104.898 106.426 105.966C105.429 106.963 104.111 107.462 102.473 107.462C100.906 107.462 99.5882 106.963 98.5198 105.966C97.5228 104.898 97.0241 103.58 97.0241 102.013V29.3626C97.0241 27.7244 97.5228 26.4067 98.5198 25.4096C99.5882 24.4124 100.906 23.9138 102.473 23.9138C104.111 23.9138 105.429 24.4124 106.426 25.4096C107.423 26.4067 107.922 27.7244 107.922 29.3626V55.5381C110.201 53.2589 112.908 51.5138 116.041 50.303C119.176 49.0209 122.523 48.3799 126.084 48.3799ZM196.45 48.4867C201.934 48.4867 206.885 49.8044 211.301 52.4398C215.788 55.0039 219.314 58.5652 221.878 63.1236C224.513 67.6109 225.831 72.6323 225.831 78.1879V102.013C225.831 103.58 225.297 104.898 224.228 105.966C223.231 106.963 221.949 107.462 220.382 107.462C218.815 107.462 217.498 106.963 216.429 105.966C215.432 104.898 214.933 103.58 214.933 102.013V98.0599C212.441 101.123 209.413 103.509 205.852 105.218C202.291 106.928 198.445 107.782 194.313 107.782C189.185 107.782 184.52 106.5 180.318 103.936C176.186 101.372 172.91 97.8462 170.488 93.359C168.138 88.8003 166.963 83.7435 166.963 78.1879C166.963 72.6323 168.245 67.6109 170.809 63.1236C173.373 58.5652 176.899 55.0039 181.386 52.4398C185.945 49.8044 190.966 48.4867 196.45 48.4867ZM196.45 98.1667C200.011 98.1667 203.217 97.312 206.066 95.6026C208.986 93.8218 211.265 91.4359 212.903 88.4444C214.541 85.3815 215.361 81.9627 215.361 78.1879C215.361 74.4131 214.541 70.9943 212.903 67.9314C211.265 64.8685 208.986 62.4826 206.066 60.7732C203.217 58.9923 200.011 58.1022 196.45 58.1022C192.889 58.1022 189.648 58.9923 186.728 60.7732C183.879 62.4826 181.6 64.8685 179.89 67.9314C178.252 70.9943 177.433 74.4131 177.433 78.1879C177.433 81.9627 178.252 85.3815 179.89 88.4444C181.6 91.4359 183.879 93.8218 186.728 95.6026C189.648 97.312 192.889 98.1667 196.45 98.1667ZM255.939 107.355C252.876 107.355 250.098 106.536 247.605 104.898C245.183 103.188 243.296 100.838 241.943 97.8462C240.589 94.7833 239.913 91.3645 239.913 87.5897V29.2558C239.913 27.6888 240.412 26.4067 241.408 25.4096C242.405 24.4124 243.688 23.9138 245.255 23.9138C246.822 23.9138 248.104 24.4124 249.101 25.4096C250.098 26.4067 250.597 27.6888 250.597 29.2558V87.5897C250.597 90.2252 251.095 92.3974 252.092 94.1069C253.089 95.8163 254.371 96.671 255.939 96.671H258.61C260.034 96.671 261.174 97.1698 262.028 98.1667C262.954 99.1637 263.417 100.446 263.417 102.013C263.417 103.58 262.741 104.862 261.387 105.859C260.034 106.856 258.289 107.355 256.152 107.355H255.939ZM323.304 77.2263C323.304 78.5798 322.841 79.719 321.915 80.6452C320.989 81.4999 319.814 81.9272 318.389 81.9272H277.791C278.574 86.9132 280.817 90.9371 284.521 94C288.296 97.0629 292.89 98.5941 298.304 98.5941C300.44 98.5941 302.648 98.2021 304.928 97.4189C307.278 96.6356 309.201 95.674 310.697 94.5342C311.694 93.7509 312.869 93.359 314.223 93.359C315.575 93.359 316.644 93.7149 317.428 94.4274C318.71 95.4958 319.351 96.7064 319.351 98.0599C319.351 99.3419 318.781 100.41 317.641 101.265C315.22 103.188 312.193 104.755 308.56 105.966C304.998 107.177 301.58 107.782 298.304 107.782C292.463 107.782 287.228 106.536 282.598 104.043C277.968 101.479 274.336 97.953 271.701 93.4658C269.137 88.9786 267.855 83.8858 267.855 78.1879C267.855 72.49 269.065 67.3972 271.487 62.91C273.98 58.3515 277.399 54.8258 281.744 52.3329C286.159 49.7688 291.145 48.4867 296.701 48.4867C302.185 48.4867 306.922 49.6975 310.911 52.1192C314.899 54.5409 317.962 57.9241 320.099 62.2689C322.235 66.6139 323.304 71.5993 323.304 77.2263ZM296.701 57.6749C291.501 57.6749 287.263 59.0992 283.987 61.9484C280.782 64.7976 278.752 68.6078 277.897 73.3801H313.475C312.834 68.6078 311.053 64.7976 308.133 61.9484C305.212 59.0992 301.402 57.6749 296.701 57.6749ZM358.464 107.782C353.621 107.782 349.062 107.034 344.788 105.539C340.515 104.043 337.167 102.084 334.745 99.6625C333.819 98.7363 333.357 97.6325 333.357 96.3505C333.357 94.6411 334.069 93.2521 335.493 92.1838C336.847 91.1868 338.093 90.688 339.233 90.688C340.657 90.688 342.01 91.329 343.293 92.6111C344.646 94.1069 346.676 95.4243 349.382 96.5641C352.089 97.6325 354.973 98.1667 358.036 98.1667C362.096 98.1667 365.23 97.4903 367.438 96.1368C369.717 94.7833 370.857 92.967 370.857 90.688C370.857 88.4798 369.753 86.6636 367.545 85.2392C365.337 83.7435 361.597 82.4969 356.327 81.4999C342.652 78.8643 335.814 73.2379 335.814 64.6194C335.814 61.1291 336.847 58.1735 338.912 55.7518C340.978 53.3301 343.684 51.5138 347.032 50.303C350.379 49.0922 353.941 48.4867 357.716 48.4867C362.345 48.4867 366.477 49.2346 370.109 50.7303C373.813 52.2261 376.733 54.2916 378.87 56.927C379.796 58.0666 380.259 59.206 380.259 60.3458C380.259 61.5565 379.653 62.6609 378.443 63.6578C377.659 64.2274 376.662 64.5125 375.451 64.5125C373.599 64.5125 371.925 63.8361 370.43 62.4826C368.649 60.8446 366.762 59.7048 364.767 59.0638C362.773 58.3515 360.351 57.9954 357.502 57.9954C354.226 57.9954 351.519 58.5652 349.382 59.7048C347.317 60.7732 346.284 62.3043 346.284 64.2989C346.284 65.7232 346.64 66.9344 347.352 67.9314C348.065 68.8575 349.418 69.7476 351.412 70.6023C353.407 71.3856 356.291 72.1695 360.066 72.9528C367.83 74.5199 373.314 76.6921 376.519 79.4699C379.796 82.2478 381.434 85.8449 381.434 90.2607C381.434 93.5372 380.544 96.5287 378.763 99.2351C376.982 101.871 374.347 103.971 370.857 105.539C367.438 107.034 363.307 107.782 358.464 107.782ZM53.9541 220.488C47.0452 220.488 40.7417 218.921 35.0437 215.787C29.4168 212.653 25.535 208.557 23.3983 203.5C23.0421 202.646 22.8641 201.933 22.8641 201.364C22.8641 200.295 23.2558 199.369 24.0393 198.586C24.8227 197.731 25.8911 197.162 27.2444 196.876C27.4581 196.805 27.8142 196.77 28.3128 196.77C29.4525 196.77 30.5209 197.126 31.518 197.838C32.5864 198.479 33.3698 199.369 33.8684 200.509C35.1505 203.287 37.679 205.637 41.454 207.56C45.2289 209.483 49.3957 210.445 53.9541 210.445C59.2961 210.445 63.8187 209.234 67.5226 206.812C71.2266 204.32 73.0783 200.936 73.0783 196.663C73.0783 192.603 71.5111 189.149 68.3774 186.299C65.2436 183.379 60.4713 181.598 54.061 180.957C45.2289 180.103 38.2844 177.539 33.2274 173.265C28.1704 168.92 25.6419 163.507 25.6419 157.026C25.6419 152.467 26.9239 148.55 29.4881 145.273C32.1234 141.926 35.6847 139.397 40.1719 137.688C44.7304 135.907 49.823 135.017 55.4499 135.017C61.5751 135.017 66.7394 136.263 70.9415 138.756C75.1436 141.249 78.7053 144.811 81.6254 149.44C82.4801 150.794 82.9074 152.076 82.9074 153.286C82.9074 154.853 82.195 156.135 80.7706 157.132C79.9874 157.631 79.0612 157.88 77.9928 157.88C76.9245 157.88 75.9275 157.631 75.0014 157.132C74.0752 156.563 73.3634 155.815 72.8646 154.889C70.9415 151.684 68.5196 149.262 65.5995 147.624C62.7503 145.914 59.1178 145.06 54.702 145.06C49.2888 145.06 44.9084 146.128 41.5608 148.265C38.2132 150.33 36.5394 153.358 36.5394 157.346C36.5394 161.05 38.0352 164.148 41.0266 166.641C44.0181 169.134 49.3601 170.772 57.0524 171.556C65.5995 172.41 72.2235 175.01 76.9244 179.355C81.6254 183.628 83.9758 189.291 83.9758 196.342C83.9758 201.47 82.5869 205.886 79.8091 209.59C77.0313 213.223 73.3274 215.965 68.6979 217.817C64.1392 219.598 59.2246 220.488 53.9541 220.488ZM126.442 219.847C120.743 219.847 115.651 218.6 111.164 216.107C106.677 213.543 103.186 210.018 100.694 205.53C98.2005 201.043 96.9544 195.95 96.9544 190.252C96.9544 184.483 98.2005 179.355 100.694 174.868C103.186 170.38 106.677 166.89 111.164 164.397C115.651 161.833 120.743 160.551 126.442 160.551C132.068 160.551 137.09 161.833 141.506 164.397C145.993 166.89 149.483 170.38 151.976 174.868C154.54 179.355 155.823 184.483 155.823 190.252C155.823 195.95 154.576 201.043 152.083 205.53C149.59 210.018 146.1 213.543 141.613 216.107C137.197 218.6 132.14 219.847 126.442 219.847ZM126.442 210.231C130.074 210.231 133.315 209.377 136.164 207.667C139.084 205.958 141.328 203.607 142.895 200.616C144.533 197.553 145.352 194.099 145.352 190.252C145.352 186.406 144.533 182.952 142.895 179.889C141.328 176.826 139.084 174.44 136.164 172.731C133.315 171.021 130.074 170.167 126.442 170.167C122.809 170.167 119.533 171.021 116.613 172.731C113.763 174.44 111.52 176.826 109.882 179.889C108.243 182.952 107.425 186.406 107.425 190.252C107.425 194.099 108.243 197.553 109.882 200.616C111.52 203.607 113.763 205.958 116.613 207.667C119.533 209.377 122.809 210.231 126.442 210.231ZM220.225 160.872C221.863 160.872 223.181 161.371 224.178 162.367C225.175 163.364 225.674 164.683 225.674 166.321V213.971C225.674 215.538 225.175 216.855 224.178 217.924C223.181 218.921 221.863 219.419 220.225 219.419C218.658 219.419 217.341 218.921 216.272 217.924C215.275 216.855 214.777 215.538 214.777 213.971V212.795C212.497 215.074 209.791 216.855 206.657 218.137C203.523 219.348 200.175 219.954 196.614 219.954C191.699 219.954 187.283 218.885 183.366 216.748C179.448 214.612 176.386 211.513 174.178 207.453C171.97 203.322 170.866 198.372 170.866 192.603V166.321C170.866 164.753 171.364 163.471 172.362 162.474C173.43 161.406 174.747 160.872 176.315 160.872C177.881 160.872 179.163 161.406 180.161 162.474C181.229 163.471 181.763 164.753 181.763 166.321V192.603C181.763 198.372 183.295 202.753 186.357 205.744C189.491 208.664 193.623 210.124 198.751 210.124C201.742 210.124 204.449 209.519 206.871 208.308C209.363 207.098 211.286 205.459 212.64 203.394C214.064 201.328 214.777 199.013 214.777 196.449V166.321C214.777 164.683 215.275 163.364 216.272 162.367C217.341 161.371 218.658 160.872 220.225 160.872ZM266.128 219.847C261.284 219.847 256.726 219.099 252.452 217.603C248.179 216.107 244.831 214.149 242.41 211.727C241.483 210.801 241.021 209.697 241.021 208.415C241.021 206.706 241.732 205.317 243.157 204.248C244.51 203.251 245.757 202.753 246.897 202.753C248.321 202.753 249.675 203.394 250.957 204.676C252.31 206.171 254.339 207.489 257.046 208.629C259.753 209.697 262.637 210.231 265.7 210.231C269.76 210.231 272.894 209.555 275.102 208.201C277.381 206.848 278.521 205.032 278.521 202.753C278.521 200.544 277.417 198.728 275.209 197.304C273.001 195.808 269.261 194.561 263.991 193.564C250.316 190.929 243.478 185.302 243.478 176.684C243.478 173.194 244.51 170.238 246.576 167.816C248.642 165.394 251.348 163.578 254.696 162.367C258.043 161.157 261.604 160.551 265.38 160.551C270.009 160.551 274.141 161.299 277.773 162.795C281.476 164.291 284.397 166.356 286.534 168.992C287.459 170.131 287.923 171.271 287.923 172.41C287.923 173.621 287.317 174.725 286.107 175.722C285.323 176.292 284.326 176.577 283.115 176.577C281.263 176.577 279.589 175.901 278.094 174.547C276.313 172.909 274.425 171.769 272.431 171.128C270.437 170.416 268.015 170.06 265.166 170.06C261.89 170.06 259.183 170.63 257.046 171.769C254.98 172.838 253.948 174.369 253.948 176.363C253.948 177.788 254.304 178.999 255.016 179.996C255.728 180.922 257.082 181.812 259.076 182.667C261.07 183.45 263.955 184.234 267.73 185.017C275.493 186.584 280.978 188.757 284.183 191.534C287.459 194.312 289.098 197.909 289.098 202.325C289.098 205.602 288.207 208.593 286.427 211.3C284.646 213.935 282.011 216.036 278.521 217.603C275.102 219.099 270.971 219.847 266.128 219.847ZM329.373 160.551C334.857 160.551 339.808 161.869 344.223 164.504C348.711 167.068 352.236 170.63 354.8 175.188C357.436 179.675 358.753 184.697 358.753 190.252V214.077C358.753 215.645 358.219 216.962 357.151 218.03C356.154 219.027 354.872 219.526 353.305 219.526C351.737 219.526 350.42 219.027 349.352 218.03C348.355 216.962 347.856 215.645 347.856 214.077V210.124C345.363 213.187 342.336 215.573 338.775 217.283C335.213 218.992 331.367 219.847 327.236 219.847C322.108 219.847 317.442 218.565 313.24 216.001C309.109 213.436 305.833 209.911 303.411 205.424C301.06 200.865 299.885 195.808 299.885 190.252C299.885 184.697 301.167 179.675 303.731 175.188C306.296 170.63 309.821 167.068 314.308 164.504C318.867 161.869 323.889 160.551 329.373 160.551ZM329.373 210.231C332.934 210.231 336.139 209.377 338.988 207.667C341.908 205.886 344.188 203.5 345.826 200.509C347.464 197.446 348.283 194.027 348.283 190.252C348.283 186.478 347.464 183.059 345.826 179.996C344.188 176.933 341.908 174.547 338.988 172.838C336.139 171.057 332.934 170.167 329.373 170.167C325.812 170.167 322.57 171.057 319.65 172.838C316.801 174.547 314.522 176.933 312.813 179.996C311.175 183.059 310.355 186.478 310.355 190.252C310.355 194.027 311.175 197.446 312.813 200.509C314.522 203.5 316.801 205.886 319.65 207.667C322.57 209.377 325.812 210.231 329.373 210.231Z" fill="#3F4C95"/>
<path d="M388.387 4H15.6129C9.19927 4 4 9.19927 4 15.6129V232.774C4 239.188 9.19927 244.387 15.6129 244.387H388.387C394.801 244.387 400 239.188 400 232.774V15.6129C400 9.19927 394.801 4 388.387 4Z" stroke="#4654A3" stroke-width="8"/>
</svg>
